M48
; DRILL file {KiCad (5.1.6)-1} date 03/01/21 14:21:52
; FORMAT={-:-/ absolute / inch / decimal}
; #@! TF.CreationDate,2021-03-01T14:21:52+01:00
; #@! TF.GenerationSoftware,Kicad,Pcbnew,(5.1.6)-1
FMAT,2
INCH
T1C0.0315
T2C0.0354
T3C0.0394
T4C0.0433
%
G90
G05
T1
X5.9Y-3.7
X7.5Y-3.7
X7.5Y-4.2
T2
X7.75Y-3.35
X7.75Y-3.45
X7.75Y-3.55
X6.2Y-2.9
X6.2Y-3.0
X6.2Y-3.1
X6.2Y-3.2
X6.2Y-3.3
X6.2Y-3.4
X6.2Y-3.5
X6.2Y-3.6
X6.2Y-3.7
X6.2Y-3.8
X6.2Y-3.9
X6.2Y-4.0
X6.2Y-4.1
X6.2Y-4.2
X6.2Y-4.3
X6.2Y-4.4
X6.2Y-4.5
X6.2Y-4.6
X7.15Y-2.9
X7.15Y-3.0
X7.15Y-3.1
X7.15Y-3.2
X7.15Y-3.3
X7.15Y-3.4
X7.15Y-3.5
X7.15Y-3.6
X7.15Y-3.7
X7.15Y-3.8
X7.15Y-3.9
X7.15Y-4.0
X7.15Y-4.1
X7.15Y-4.2
X7.15Y-4.3
X7.15Y-4.4
X7.15Y-4.5
X7.15Y-4.6
X8.1Y-3.1
X8.1Y-3.2
X8.1Y-3.3
X8.1Y-3.4
X8.1Y-3.5
X8.1Y-3.6
X8.1Y-3.7
X8.1Y-3.8
X7.75Y-2.95
X7.75Y-3.05
X7.75Y-3.15
T3
X8.1Y-4.45
X8.1Y-4.5996
X5.9Y-3.4
X5.9Y-3.5
X5.9Y-3.6
X4.8453Y-2.8425
X5.05Y-4.0
X5.2469Y-4.0
X5.4516Y-2.8425
X7.537Y-4.4535
X7.537Y-4.6465
X7.663Y-4.4535
X7.663Y-4.6465
X4.5Y-4.25
X4.5Y-4.35
T4
X4.6Y-4.75
X5.5Y-4.75
T0
M30
