M48
; DRILL file {KiCad (5.1.6)-1} date 03/02/21 08:43:39
; FORMAT={-:-/ absolute / inch / decimal}
; #@! TF.CreationDate,2021-03-02T08:43:39+01:00
; #@! TF.GenerationSoftware,Kicad,Pcbnew,(5.1.6)-1
FMAT,2
INCH
T1C0.0276
T2C0.0315
T3C0.0374
T4C0.0394
T5C0.0598
%
G90
G05
T1
X4.7Y-3.9
X5.2Y-4.2
X5.3Y-3.9
X5.45Y-4.2
X6.11Y-5.72
X6.23Y-5.41
T2
X4.8563Y-3.3
X4.9547Y-3.3
X5.0531Y-3.3
X5.1516Y-3.3
X5.25Y-3.3
X5.3484Y-3.3
X5.4469Y-3.3
X5.5453Y-3.3
X5.9Y-5.4047
X5.9Y-5.5031
X5.9Y-5.6016
X5.9Y-5.7
X5.9Y-4.1016
X5.9Y-4.2
X5.9Y-4.2984
X6.1Y-5.3
X6.1Y-5.6
X4.7031Y-4.0
X4.7031Y-4.1
X4.7031Y-4.2
X4.7031Y-4.3
X4.7031Y-4.4
X4.7031Y-4.5
X4.7031Y-4.6
X4.7031Y-4.7
X4.7031Y-4.8
X4.7031Y-4.9
X4.7031Y-5.0
X4.7031Y-5.1
X4.7031Y-5.2
X4.7031Y-5.3
X4.7031Y-5.4
X4.7031Y-5.5
X4.7031Y-5.6
X4.7031Y-5.7
X5.5969Y-4.0
X5.5969Y-4.1
X5.5969Y-4.2
X5.5969Y-4.3
X5.5969Y-4.4
X5.5969Y-4.5
X5.5969Y-4.6
X5.5969Y-4.7
X5.5969Y-4.8
X5.5969Y-4.9
X5.5969Y-5.0
X5.5969Y-5.1
X5.5969Y-5.2
X5.5969Y-5.3
X5.5969Y-5.4
X5.5969Y-5.5
X5.5969Y-5.6
X5.5969Y-5.7
X3.93Y-5.73
T3
X5.4Y-3.7
X5.4984Y-3.7
X5.5969Y-3.7
X4.95Y-3.7
X5.0484Y-3.7
X5.1469Y-3.7
T4
X3.93Y-5.5804
X4.28Y-3.7302
X4.28Y-4.62
X3.2984Y-4.9675
X3.5031Y-3.81
X3.7Y-3.81
X3.9047Y-4.9675
T5
X3.98Y-3.2
X4.18Y-3.2
T0
M30
