%TF.GenerationSoftware,KiCad,Pcbnew,(5.1.6)-1*%
%TF.CreationDate,2021-03-02T09:32:05+01:00*%
%TF.ProjectId,Bukaerako_Erronka,42756b61-6572-4616-9b6f-5f4572726f6e,rev?*%
%TF.SameCoordinates,Original*%
%TF.FileFunction,Copper,L2,Bot*%
%TF.FilePolarity,Positive*%
%FSLAX46Y46*%
G04 Gerber Fmt 4.6, Leading zero omitted, Abs format (unit mm)*
G04 Created by KiCad (PCBNEW (5.1.6)-1) date 2021-03-02 09:32:05*
%MOMM*%
%LPD*%
G01*
G04 APERTURE LIST*
%TA.AperFunction,NonConductor*%
%ADD10C,0.300000*%
%TD*%
%TA.AperFunction,EtchedComponent*%
%ADD11C,0.010000*%
%TD*%
%TA.AperFunction,ComponentPad*%
%ADD12C,2.300000*%
%TD*%
%TA.AperFunction,ComponentPad*%
%ADD13R,2.000000X2.300000*%
%TD*%
%TA.AperFunction,ComponentPad*%
%ADD14C,3.000000*%
%TD*%
%TA.AperFunction,ComponentPad*%
%ADD15R,1.700000X1.700000*%
%TD*%
%TA.AperFunction,ComponentPad*%
%ADD16O,2.000000X2.000000*%
%TD*%
%TA.AperFunction,ComponentPad*%
%ADD17C,0.100000*%
%TD*%
%TA.AperFunction,ComponentPad*%
%ADD18O,1.600000X1.600000*%
%TD*%
%TA.AperFunction,ComponentPad*%
%ADD19C,1.600000*%
%TD*%
%TA.AperFunction,ComponentPad*%
%ADD20R,3.000000X3.000000*%
%TD*%
%TA.AperFunction,ComponentPad*%
%ADD21R,3.000000X2.000000*%
%TD*%
%TA.AperFunction,ComponentPad*%
%ADD22O,3.000000X2.000000*%
%TD*%
%TA.AperFunction,ComponentPad*%
%ADD23O,2.000000X3.000000*%
%TD*%
%TA.AperFunction,ComponentPad*%
%ADD24R,1.700000X2.000000*%
%TD*%
%TA.AperFunction,ViaPad*%
%ADD25C,2.000000*%
%TD*%
%TA.AperFunction,Conductor*%
%ADD26C,1.000000*%
%TD*%
G04 APERTURE END LIST*
D10*
X116141619Y-73584571D02*
X118046380Y-73584571D01*
X126301619Y-73584571D02*
X128206380Y-73584571D01*
X127254000Y-74536952D02*
X127254000Y-72632190D01*
X115738952Y-81475904D02*
X117524666Y-81475904D01*
X117881809Y-81356857D01*
X118119904Y-81118761D01*
X118238952Y-80761619D01*
X118238952Y-80523523D01*
X118238952Y-83023523D02*
X118119904Y-82785428D01*
X118000857Y-82666380D01*
X117762761Y-82547333D01*
X117048476Y-82547333D01*
X116810380Y-82666380D01*
X116691333Y-82785428D01*
X116572285Y-83023523D01*
X116572285Y-83380666D01*
X116691333Y-83618761D01*
X116810380Y-83737809D01*
X117048476Y-83856857D01*
X117762761Y-83856857D01*
X118000857Y-83737809D01*
X118119904Y-83618761D01*
X118238952Y-83380666D01*
X118238952Y-83023523D01*
X116572285Y-84928285D02*
X118238952Y-84928285D01*
X116810380Y-84928285D02*
X116691333Y-85047333D01*
X116572285Y-85285428D01*
X116572285Y-85642571D01*
X116691333Y-85880666D01*
X116929428Y-85999714D01*
X118238952Y-85999714D01*
X118119904Y-90047333D02*
X118238952Y-89809238D01*
X118238952Y-89333047D01*
X118119904Y-89094952D01*
X117881809Y-88975904D01*
X116929428Y-88975904D01*
X116691333Y-89094952D01*
X116572285Y-89333047D01*
X116572285Y-89809238D01*
X116691333Y-90047333D01*
X116929428Y-90166380D01*
X117167523Y-90166380D01*
X117405619Y-88975904D01*
X116572285Y-90880666D02*
X116572285Y-91833047D01*
X115738952Y-91237809D02*
X117881809Y-91237809D01*
X118119904Y-91356857D01*
X118238952Y-91594952D01*
X118238952Y-91833047D01*
X118238952Y-93737809D02*
X116929428Y-93737809D01*
X116691333Y-93618761D01*
X116572285Y-93380666D01*
X116572285Y-92904476D01*
X116691333Y-92666380D01*
X118119904Y-93737809D02*
X118238952Y-93499714D01*
X118238952Y-92904476D01*
X118119904Y-92666380D01*
X117881809Y-92547333D01*
X117643714Y-92547333D01*
X117405619Y-92666380D01*
X117286571Y-92904476D01*
X117286571Y-93499714D01*
X117167523Y-93737809D01*
X118238952Y-96833047D02*
X115738952Y-96833047D01*
X117524666Y-97666380D01*
X115738952Y-98499714D01*
X118238952Y-98499714D01*
X118238952Y-99690190D02*
X116572285Y-99690190D01*
X115738952Y-99690190D02*
X115858000Y-99571142D01*
X115977047Y-99690190D01*
X115858000Y-99809238D01*
X115738952Y-99690190D01*
X115977047Y-99690190D01*
X118238952Y-100880666D02*
X115738952Y-100880666D01*
X117286571Y-101118761D02*
X118238952Y-101833047D01*
X116572285Y-101833047D02*
X117524666Y-100880666D01*
X118119904Y-103856857D02*
X118238952Y-103618761D01*
X118238952Y-103142571D01*
X118119904Y-102904476D01*
X117881809Y-102785428D01*
X116929428Y-102785428D01*
X116691333Y-102904476D01*
X116572285Y-103142571D01*
X116572285Y-103618761D01*
X116691333Y-103856857D01*
X116929428Y-103975904D01*
X117167523Y-103975904D01*
X117405619Y-102785428D01*
X118238952Y-105404476D02*
X118119904Y-105166380D01*
X117881809Y-105047333D01*
X115738952Y-105047333D01*
X124077047Y-82606857D02*
X123958000Y-82725904D01*
X123838952Y-82964000D01*
X123838952Y-83559238D01*
X123958000Y-83797333D01*
X124077047Y-83916380D01*
X124315142Y-84035428D01*
X124553238Y-84035428D01*
X124910380Y-83916380D01*
X126338952Y-82487809D01*
X126338952Y-84035428D01*
X123838952Y-85583047D02*
X123838952Y-85821142D01*
X123958000Y-86059238D01*
X124077047Y-86178285D01*
X124315142Y-86297333D01*
X124791333Y-86416380D01*
X125386571Y-86416380D01*
X125862761Y-86297333D01*
X126100857Y-86178285D01*
X126219904Y-86059238D01*
X126338952Y-85821142D01*
X126338952Y-85583047D01*
X126219904Y-85344952D01*
X126100857Y-85225904D01*
X125862761Y-85106857D01*
X125386571Y-84987809D01*
X124791333Y-84987809D01*
X124315142Y-85106857D01*
X124077047Y-85225904D01*
X123958000Y-85344952D01*
X123838952Y-85583047D01*
X124077047Y-87368761D02*
X123958000Y-87487809D01*
X123838952Y-87725904D01*
X123838952Y-88321142D01*
X123958000Y-88559238D01*
X124077047Y-88678285D01*
X124315142Y-88797333D01*
X124553238Y-88797333D01*
X124910380Y-88678285D01*
X126338952Y-87249714D01*
X126338952Y-88797333D01*
X123838952Y-90344952D02*
X123838952Y-90583047D01*
X123958000Y-90821142D01*
X124077047Y-90940190D01*
X124315142Y-91059238D01*
X124791333Y-91178285D01*
X125386571Y-91178285D01*
X125862761Y-91059238D01*
X126100857Y-90940190D01*
X126219904Y-90821142D01*
X126338952Y-90583047D01*
X126338952Y-90344952D01*
X126219904Y-90106857D01*
X126100857Y-89987809D01*
X125862761Y-89868761D01*
X125386571Y-89749714D01*
X124791333Y-89749714D01*
X124315142Y-89868761D01*
X124077047Y-89987809D01*
X123958000Y-90106857D01*
X123838952Y-90344952D01*
X123719904Y-94035428D02*
X126934190Y-91892571D01*
X124077047Y-94749714D02*
X123958000Y-94868761D01*
X123838952Y-95106857D01*
X123838952Y-95702095D01*
X123958000Y-95940190D01*
X124077047Y-96059238D01*
X124315142Y-96178285D01*
X124553238Y-96178285D01*
X124910380Y-96059238D01*
X126338952Y-94630666D01*
X126338952Y-96178285D01*
X123838952Y-97725904D02*
X123838952Y-97964000D01*
X123958000Y-98202095D01*
X124077047Y-98321142D01*
X124315142Y-98440190D01*
X124791333Y-98559238D01*
X125386571Y-98559238D01*
X125862761Y-98440190D01*
X126100857Y-98321142D01*
X126219904Y-98202095D01*
X126338952Y-97964000D01*
X126338952Y-97725904D01*
X126219904Y-97487809D01*
X126100857Y-97368761D01*
X125862761Y-97249714D01*
X125386571Y-97130666D01*
X124791333Y-97130666D01*
X124315142Y-97249714D01*
X124077047Y-97368761D01*
X123958000Y-97487809D01*
X123838952Y-97725904D01*
X124077047Y-99511619D02*
X123958000Y-99630666D01*
X123838952Y-99868761D01*
X123838952Y-100464000D01*
X123958000Y-100702095D01*
X124077047Y-100821142D01*
X124315142Y-100940190D01*
X124553238Y-100940190D01*
X124910380Y-100821142D01*
X126338952Y-99392571D01*
X126338952Y-100940190D01*
X126338952Y-103321142D02*
X126338952Y-101892571D01*
X126338952Y-102606857D02*
X123838952Y-102606857D01*
X124196095Y-102368761D01*
X124434190Y-102130666D01*
X124553238Y-101892571D01*
D11*
%TO.C,G\u002A\u002A\u002A*%
G36*
X184695146Y-84246994D02*
G01*
X184600573Y-84923539D01*
X184591158Y-85237053D01*
X184647253Y-85987646D01*
X184788308Y-86489241D01*
X184858526Y-86573895D01*
X185018311Y-86435636D01*
X185109321Y-85826214D01*
X185125895Y-85237053D01*
X185083707Y-84365448D01*
X184965219Y-83927384D01*
X184858526Y-83900211D01*
X184695146Y-84246994D01*
G37*
X184695146Y-84246994D02*
X184600573Y-84923539D01*
X184591158Y-85237053D01*
X184647253Y-85987646D01*
X184788308Y-86489241D01*
X184858526Y-86573895D01*
X185018311Y-86435636D01*
X185109321Y-85826214D01*
X185125895Y-85237053D01*
X185083707Y-84365448D01*
X184965219Y-83927384D01*
X184858526Y-83900211D01*
X184695146Y-84246994D01*
G36*
X181741754Y-83997526D02*
G01*
X181661966Y-84563847D01*
X181674229Y-85275467D01*
X181774667Y-85942369D01*
X181959401Y-86374533D01*
X181970947Y-86386737D01*
X182609812Y-86671216D01*
X183445783Y-86534140D01*
X183454842Y-86530506D01*
X183671579Y-86164544D01*
X183747529Y-85327219D01*
X183742341Y-85014246D01*
X183712816Y-84246791D01*
X183684914Y-83989535D01*
X183645093Y-84218152D01*
X183594301Y-84748334D01*
X183394350Y-85710385D01*
X183065461Y-86260436D01*
X182696960Y-86385458D01*
X182378172Y-86072425D01*
X182198423Y-85308307D01*
X182184842Y-84953905D01*
X182131075Y-84241862D01*
X181995226Y-83818041D01*
X181917473Y-83766527D01*
X181741754Y-83997526D01*
G37*
X181741754Y-83997526D02*
X181661966Y-84563847D01*
X181674229Y-85275467D01*
X181774667Y-85942369D01*
X181959401Y-86374533D01*
X181970947Y-86386737D01*
X182609812Y-86671216D01*
X183445783Y-86534140D01*
X183454842Y-86530506D01*
X183671579Y-86164544D01*
X183747529Y-85327219D01*
X183742341Y-85014246D01*
X183712816Y-84246791D01*
X183684914Y-83989535D01*
X183645093Y-84218152D01*
X183594301Y-84748334D01*
X183394350Y-85710385D01*
X183065461Y-86260436D01*
X182696960Y-86385458D01*
X182378172Y-86072425D01*
X182198423Y-85308307D01*
X182184842Y-84953905D01*
X182131075Y-84241862D01*
X181995226Y-83818041D01*
X181917473Y-83766527D01*
X181741754Y-83997526D01*
G36*
X179386277Y-83924612D02*
G01*
X178955944Y-84308296D01*
X178871855Y-84781718D01*
X179035156Y-85055156D01*
X179200792Y-85453351D01*
X179028374Y-86031906D01*
X178872144Y-86552086D01*
X178987885Y-86707579D01*
X179283254Y-86490884D01*
X179559806Y-86039158D01*
X179950905Y-85488234D01*
X180331306Y-85434316D01*
X180607004Y-85871673D01*
X180656496Y-86106000D01*
X180719510Y-86263783D01*
X180774700Y-85953781D01*
X180807939Y-85303895D01*
X180815522Y-84720912D01*
X180580631Y-84720912D01*
X180382779Y-85003310D01*
X179945312Y-85053444D01*
X179502367Y-84887048D01*
X179309293Y-84635474D01*
X179441055Y-84374347D01*
X179889930Y-84301263D01*
X180450567Y-84441386D01*
X180580631Y-84720912D01*
X180815522Y-84720912D01*
X180819184Y-84439455D01*
X180753058Y-83980879D01*
X180546566Y-83799489D01*
X180136710Y-83766605D01*
X180055302Y-83766527D01*
X179386277Y-83924612D01*
G37*
X179386277Y-83924612D02*
X178955944Y-84308296D01*
X178871855Y-84781718D01*
X179035156Y-85055156D01*
X179200792Y-85453351D01*
X179028374Y-86031906D01*
X178872144Y-86552086D01*
X178987885Y-86707579D01*
X179283254Y-86490884D01*
X179559806Y-86039158D01*
X179950905Y-85488234D01*
X180331306Y-85434316D01*
X180607004Y-85871673D01*
X180656496Y-86106000D01*
X180719510Y-86263783D01*
X180774700Y-85953781D01*
X180807939Y-85303895D01*
X180815522Y-84720912D01*
X180580631Y-84720912D01*
X180382779Y-85003310D01*
X179945312Y-85053444D01*
X179502367Y-84887048D01*
X179309293Y-84635474D01*
X179441055Y-84374347D01*
X179889930Y-84301263D01*
X180450567Y-84441386D01*
X180580631Y-84720912D01*
X180815522Y-84720912D01*
X180819184Y-84439455D01*
X180753058Y-83980879D01*
X180546566Y-83799489D01*
X180136710Y-83766605D01*
X180055302Y-83766527D01*
X179386277Y-83924612D01*
G36*
X176703191Y-83876470D02*
G01*
X176205589Y-84194718D01*
X176018486Y-84691442D01*
X176201456Y-85156219D01*
X176315720Y-85245077D01*
X176438829Y-85543715D01*
X176290442Y-85786603D01*
X176082324Y-86274067D01*
X176097393Y-86492602D01*
X176294418Y-86551481D01*
X176647508Y-86161304D01*
X176688157Y-86100539D01*
X177158548Y-85524167D01*
X177487984Y-85410363D01*
X177635498Y-85768203D01*
X177639579Y-85889695D01*
X177762352Y-86401531D01*
X177906947Y-86573895D01*
X178071502Y-86440988D01*
X178161763Y-85844304D01*
X178174316Y-85378125D01*
X178119971Y-84702316D01*
X177639579Y-84702316D01*
X177416675Y-85028931D01*
X177104842Y-85103369D01*
X176669355Y-84936191D01*
X176570105Y-84702316D01*
X176793009Y-84375701D01*
X177104842Y-84301263D01*
X177540329Y-84468441D01*
X177639579Y-84702316D01*
X178119971Y-84702316D01*
X178097142Y-84418441D01*
X177820631Y-83908096D01*
X177277295Y-83778202D01*
X176703191Y-83876470D01*
G37*
X176703191Y-83876470D02*
X176205589Y-84194718D01*
X176018486Y-84691442D01*
X176201456Y-85156219D01*
X176315720Y-85245077D01*
X176438829Y-85543715D01*
X176290442Y-85786603D01*
X176082324Y-86274067D01*
X176097393Y-86492602D01*
X176294418Y-86551481D01*
X176647508Y-86161304D01*
X176688157Y-86100539D01*
X177158548Y-85524167D01*
X177487984Y-85410363D01*
X177635498Y-85768203D01*
X177639579Y-85889695D01*
X177762352Y-86401531D01*
X177906947Y-86573895D01*
X178071502Y-86440988D01*
X178161763Y-85844304D01*
X178174316Y-85378125D01*
X178119971Y-84702316D01*
X177639579Y-84702316D01*
X177416675Y-85028931D01*
X177104842Y-85103369D01*
X176669355Y-84936191D01*
X176570105Y-84702316D01*
X176793009Y-84375701D01*
X177104842Y-84301263D01*
X177540329Y-84468441D01*
X177639579Y-84702316D01*
X178119971Y-84702316D01*
X178097142Y-84418441D01*
X177820631Y-83908096D01*
X177277295Y-83778202D01*
X176703191Y-83876470D01*
G36*
X173694687Y-83829046D02*
G01*
X173371563Y-83975803D01*
X173361684Y-84017755D01*
X173594448Y-84214698D01*
X174157428Y-84301093D01*
X174186070Y-84301263D01*
X174767812Y-84413261D01*
X174888033Y-84676386D01*
X174552246Y-84981331D01*
X174143967Y-85136185D01*
X173711561Y-85267925D01*
X173773950Y-85321535D01*
X174230631Y-85344086D01*
X174792446Y-85500154D01*
X174979762Y-85801864D01*
X174775740Y-86080316D01*
X174313253Y-86172842D01*
X173747128Y-86271425D01*
X173495368Y-86440211D01*
X173608819Y-86621716D01*
X174154893Y-86705441D01*
X174290086Y-86707579D01*
X175018301Y-86607029D01*
X175390085Y-86342250D01*
X175393154Y-86334643D01*
X175466149Y-85835445D01*
X175462342Y-85083886D01*
X175451605Y-84930959D01*
X175356889Y-84257584D01*
X175111835Y-83948536D01*
X174550309Y-83833640D01*
X174364316Y-83817229D01*
X173694687Y-83829046D01*
G37*
X173694687Y-83829046D02*
X173371563Y-83975803D01*
X173361684Y-84017755D01*
X173594448Y-84214698D01*
X174157428Y-84301093D01*
X174186070Y-84301263D01*
X174767812Y-84413261D01*
X174888033Y-84676386D01*
X174552246Y-84981331D01*
X174143967Y-85136185D01*
X173711561Y-85267925D01*
X173773950Y-85321535D01*
X174230631Y-85344086D01*
X174792446Y-85500154D01*
X174979762Y-85801864D01*
X174775740Y-86080316D01*
X174313253Y-86172842D01*
X173747128Y-86271425D01*
X173495368Y-86440211D01*
X173608819Y-86621716D01*
X174154893Y-86705441D01*
X174290086Y-86707579D01*
X175018301Y-86607029D01*
X175390085Y-86342250D01*
X175393154Y-86334643D01*
X175466149Y-85835445D01*
X175462342Y-85083886D01*
X175451605Y-84930959D01*
X175356889Y-84257584D01*
X175111835Y-83948536D01*
X174550309Y-83833640D01*
X174364316Y-83817229D01*
X173694687Y-83829046D01*
G36*
X171272629Y-83833680D02*
G01*
X170963451Y-83998806D01*
X170955368Y-84033895D01*
X171170867Y-84273515D01*
X171341771Y-84301263D01*
X171620309Y-84515395D01*
X171789390Y-85190421D01*
X171828316Y-85571263D01*
X171928457Y-86841263D01*
X171976649Y-85571263D01*
X172061037Y-84742238D01*
X172252626Y-84356185D01*
X172425895Y-84301263D01*
X172781700Y-84156892D01*
X172826947Y-84033895D01*
X172591909Y-83857172D01*
X172013968Y-83768836D01*
X171891158Y-83766527D01*
X171272629Y-83833680D01*
G37*
X171272629Y-83833680D02*
X170963451Y-83998806D01*
X170955368Y-84033895D01*
X171170867Y-84273515D01*
X171341771Y-84301263D01*
X171620309Y-84515395D01*
X171789390Y-85190421D01*
X171828316Y-85571263D01*
X171928457Y-86841263D01*
X171976649Y-85571263D01*
X172061037Y-84742238D01*
X172252626Y-84356185D01*
X172425895Y-84301263D01*
X172781700Y-84156892D01*
X172826947Y-84033895D01*
X172591909Y-83857172D01*
X172013968Y-83768836D01*
X171891158Y-83766527D01*
X171272629Y-83833680D01*
G36*
X169314462Y-84111986D02*
G01*
X169014966Y-84706408D01*
X168719002Y-85438640D01*
X168496003Y-86129477D01*
X168415404Y-86599716D01*
X168441891Y-86689540D01*
X168668130Y-86616671D01*
X168849760Y-86371141D01*
X169316937Y-85958989D01*
X169892392Y-86010367D01*
X170315811Y-86373369D01*
X170589169Y-86661768D01*
X170677383Y-86503107D01*
X170679497Y-86449150D01*
X170592326Y-85903398D01*
X170361840Y-85200001D01*
X170319857Y-85103369D01*
X169885895Y-85103369D01*
X169718717Y-85538856D01*
X169484842Y-85638106D01*
X169128139Y-85577246D01*
X169083789Y-85526289D01*
X169166964Y-85212002D01*
X169246079Y-84991552D01*
X169534060Y-84602845D01*
X169799072Y-84697789D01*
X169885895Y-85103369D01*
X170319857Y-85103369D01*
X170061286Y-84508222D01*
X169763911Y-83997321D01*
X169548057Y-83834578D01*
X169314462Y-84111986D01*
G37*
X169314462Y-84111986D02*
X169014966Y-84706408D01*
X168719002Y-85438640D01*
X168496003Y-86129477D01*
X168415404Y-86599716D01*
X168441891Y-86689540D01*
X168668130Y-86616671D01*
X168849760Y-86371141D01*
X169316937Y-85958989D01*
X169892392Y-86010367D01*
X170315811Y-86373369D01*
X170589169Y-86661768D01*
X170677383Y-86503107D01*
X170679497Y-86449150D01*
X170592326Y-85903398D01*
X170361840Y-85200001D01*
X170319857Y-85103369D01*
X169885895Y-85103369D01*
X169718717Y-85538856D01*
X169484842Y-85638106D01*
X169128139Y-85577246D01*
X169083789Y-85526289D01*
X169166964Y-85212002D01*
X169246079Y-84991552D01*
X169534060Y-84602845D01*
X169799072Y-84697789D01*
X169885895Y-85103369D01*
X170319857Y-85103369D01*
X170061286Y-84508222D01*
X169763911Y-83997321D01*
X169548057Y-83834578D01*
X169314462Y-84111986D01*
G36*
X181867844Y-73147507D02*
G01*
X181783789Y-73232135D01*
X180921563Y-74218139D01*
X180456399Y-74929136D01*
X180376079Y-75213793D01*
X180287830Y-75659404D01*
X180072360Y-76368831D01*
X179986762Y-76614421D01*
X179739085Y-77461933D01*
X179609640Y-78217742D01*
X179604061Y-78352316D01*
X179670940Y-78431753D01*
X179847239Y-78069950D01*
X180100227Y-77341164D01*
X180214239Y-76968002D01*
X180685059Y-75644214D01*
X181241710Y-74494490D01*
X181824975Y-73614311D01*
X182375637Y-73099158D01*
X182672075Y-73004948D01*
X183063590Y-73224140D01*
X183366874Y-73666933D01*
X183496886Y-74074280D01*
X183419769Y-74456008D01*
X183073568Y-74953592D01*
X182541523Y-75551538D01*
X181900861Y-76360290D01*
X181226718Y-77392539D01*
X180602520Y-78497396D01*
X180111693Y-79523973D01*
X179837662Y-80321380D01*
X179810382Y-80491263D01*
X179743139Y-80532303D01*
X179619294Y-80140506D01*
X179578000Y-79956527D01*
X179381025Y-79020737D01*
X179345828Y-80039148D01*
X179258875Y-80720727D01*
X179058867Y-80893627D01*
X179004775Y-80868529D01*
X178929208Y-80937981D01*
X179066015Y-81303460D01*
X179334447Y-81813753D01*
X179653753Y-82317650D01*
X179943183Y-82663939D01*
X179979052Y-82692959D01*
X180615113Y-82879326D01*
X181458977Y-82624075D01*
X181852695Y-82405167D01*
X182734045Y-81702769D01*
X183538408Y-80761104D01*
X184238568Y-79662200D01*
X184807308Y-78488082D01*
X185217413Y-77320775D01*
X185441665Y-76242305D01*
X185449930Y-75571458D01*
X185161242Y-75571458D01*
X185102448Y-76480251D01*
X184795453Y-77605833D01*
X184447195Y-78448998D01*
X183915082Y-79455569D01*
X183305958Y-80409229D01*
X182696171Y-81212196D01*
X182162069Y-81766690D01*
X181779998Y-81974929D01*
X181708486Y-81956561D01*
X181389780Y-82006224D01*
X181318590Y-82091113D01*
X180920764Y-82354302D01*
X180478817Y-82206827D01*
X180256318Y-81859288D01*
X180196939Y-80956773D01*
X180443450Y-79799017D01*
X180938552Y-78523254D01*
X181624946Y-77266719D01*
X182445332Y-76166645D01*
X182777507Y-75820856D01*
X183588526Y-75043850D01*
X183620160Y-75695452D01*
X183654952Y-76076627D01*
X183723134Y-75977976D01*
X183823312Y-75544948D01*
X184088408Y-74922444D01*
X184526941Y-74742842D01*
X184970013Y-74964105D01*
X185161242Y-75571458D01*
X185449930Y-75571458D01*
X185452848Y-75334698D01*
X185223747Y-74679980D01*
X184727144Y-74360176D01*
X184528147Y-74341790D01*
X183960661Y-74127168D01*
X183588526Y-73539684D01*
X183128615Y-72900237D01*
X182531486Y-72765494D01*
X181867844Y-73147507D01*
G37*
X181867844Y-73147507D02*
X181783789Y-73232135D01*
X180921563Y-74218139D01*
X180456399Y-74929136D01*
X180376079Y-75213793D01*
X180287830Y-75659404D01*
X180072360Y-76368831D01*
X179986762Y-76614421D01*
X179739085Y-77461933D01*
X179609640Y-78217742D01*
X179604061Y-78352316D01*
X179670940Y-78431753D01*
X179847239Y-78069950D01*
X180100227Y-77341164D01*
X180214239Y-76968002D01*
X180685059Y-75644214D01*
X181241710Y-74494490D01*
X181824975Y-73614311D01*
X182375637Y-73099158D01*
X182672075Y-73004948D01*
X183063590Y-73224140D01*
X183366874Y-73666933D01*
X183496886Y-74074280D01*
X183419769Y-74456008D01*
X183073568Y-74953592D01*
X182541523Y-75551538D01*
X181900861Y-76360290D01*
X181226718Y-77392539D01*
X180602520Y-78497396D01*
X180111693Y-79523973D01*
X179837662Y-80321380D01*
X179810382Y-80491263D01*
X179743139Y-80532303D01*
X179619294Y-80140506D01*
X179578000Y-79956527D01*
X179381025Y-79020737D01*
X179345828Y-80039148D01*
X179258875Y-80720727D01*
X179058867Y-80893627D01*
X179004775Y-80868529D01*
X178929208Y-80937981D01*
X179066015Y-81303460D01*
X179334447Y-81813753D01*
X179653753Y-82317650D01*
X179943183Y-82663939D01*
X179979052Y-82692959D01*
X180615113Y-82879326D01*
X181458977Y-82624075D01*
X181852695Y-82405167D01*
X182734045Y-81702769D01*
X183538408Y-80761104D01*
X184238568Y-79662200D01*
X184807308Y-78488082D01*
X185217413Y-77320775D01*
X185441665Y-76242305D01*
X185449930Y-75571458D01*
X185161242Y-75571458D01*
X185102448Y-76480251D01*
X184795453Y-77605833D01*
X184447195Y-78448998D01*
X183915082Y-79455569D01*
X183305958Y-80409229D01*
X182696171Y-81212196D01*
X182162069Y-81766690D01*
X181779998Y-81974929D01*
X181708486Y-81956561D01*
X181389780Y-82006224D01*
X181318590Y-82091113D01*
X180920764Y-82354302D01*
X180478817Y-82206827D01*
X180256318Y-81859288D01*
X180196939Y-80956773D01*
X180443450Y-79799017D01*
X180938552Y-78523254D01*
X181624946Y-77266719D01*
X182445332Y-76166645D01*
X182777507Y-75820856D01*
X183588526Y-75043850D01*
X183620160Y-75695452D01*
X183654952Y-76076627D01*
X183723134Y-75977976D01*
X183823312Y-75544948D01*
X184088408Y-74922444D01*
X184526941Y-74742842D01*
X184970013Y-74964105D01*
X185161242Y-75571458D01*
X185449930Y-75571458D01*
X185452848Y-75334698D01*
X185223747Y-74679980D01*
X184727144Y-74360176D01*
X184528147Y-74341790D01*
X183960661Y-74127168D01*
X183588526Y-73539684D01*
X183128615Y-72900237D01*
X182531486Y-72765494D01*
X181867844Y-73147507D01*
G36*
X179043263Y-82229158D02*
G01*
X179176947Y-82362842D01*
X179310631Y-82229158D01*
X179176947Y-82095474D01*
X179043263Y-82229158D01*
G37*
X179043263Y-82229158D02*
X179176947Y-82362842D01*
X179310631Y-82229158D01*
X179176947Y-82095474D01*
X179043263Y-82229158D01*
G36*
X174230631Y-82229158D02*
G01*
X174364316Y-82362842D01*
X174498000Y-82229158D01*
X174364316Y-82095474D01*
X174230631Y-82229158D01*
G37*
X174230631Y-82229158D02*
X174364316Y-82362842D01*
X174498000Y-82229158D01*
X174364316Y-82095474D01*
X174230631Y-82229158D01*
G36*
X178508526Y-81961790D02*
G01*
X178642210Y-82095474D01*
X178775895Y-81961790D01*
X178642210Y-81828106D01*
X178508526Y-81961790D01*
G37*
X178508526Y-81961790D02*
X178642210Y-82095474D01*
X178775895Y-81961790D01*
X178642210Y-81828106D01*
X178508526Y-81961790D01*
G36*
X177706421Y-81427053D02*
G01*
X177840105Y-81560737D01*
X177973789Y-81427053D01*
X177840105Y-81293369D01*
X177706421Y-81427053D01*
G37*
X177706421Y-81427053D02*
X177840105Y-81560737D01*
X177973789Y-81427053D01*
X177840105Y-81293369D01*
X177706421Y-81427053D01*
G36*
X178249346Y-79555474D02*
G01*
X178382471Y-79994861D01*
X178508526Y-80223895D01*
X178720381Y-80437903D01*
X178767706Y-80357579D01*
X178634581Y-79918192D01*
X178508526Y-79689158D01*
X178296671Y-79475150D01*
X178249346Y-79555474D01*
G37*
X178249346Y-79555474D02*
X178382471Y-79994861D01*
X178508526Y-80223895D01*
X178720381Y-80437903D01*
X178767706Y-80357579D01*
X178634581Y-79918192D01*
X178508526Y-79689158D01*
X178296671Y-79475150D01*
X178249346Y-79555474D01*
G36*
X175651357Y-79594496D02*
G01*
X175701158Y-79689158D01*
X175953076Y-79944496D01*
X176000085Y-79956527D01*
X176018327Y-79783820D01*
X175968526Y-79689158D01*
X175716608Y-79433821D01*
X175669599Y-79421790D01*
X175651357Y-79594496D01*
G37*
X175651357Y-79594496D02*
X175701158Y-79689158D01*
X175953076Y-79944496D01*
X176000085Y-79956527D01*
X176018327Y-79783820D01*
X175968526Y-79689158D01*
X175716608Y-79433821D01*
X175669599Y-79421790D01*
X175651357Y-79594496D01*
G36*
X177729307Y-78084948D02*
G01*
X177855559Y-78655711D01*
X177973789Y-78887053D01*
X178179190Y-79101042D01*
X178218271Y-79020737D01*
X178128283Y-78588754D01*
X177959021Y-78184985D01*
X177797082Y-77975160D01*
X177729307Y-78084948D01*
G37*
X177729307Y-78084948D02*
X177855559Y-78655711D01*
X177973789Y-78887053D01*
X178179190Y-79101042D01*
X178218271Y-79020737D01*
X178128283Y-78588754D01*
X177959021Y-78184985D01*
X177797082Y-77975160D01*
X177729307Y-78084948D01*
G36*
X174581883Y-78257654D02*
G01*
X174631684Y-78352316D01*
X174883602Y-78607654D01*
X174930611Y-78619684D01*
X174948853Y-78446978D01*
X174899052Y-78352316D01*
X174647134Y-78096978D01*
X174600125Y-78084948D01*
X174581883Y-78257654D01*
G37*
X174581883Y-78257654D02*
X174631684Y-78352316D01*
X174883602Y-78607654D01*
X174930611Y-78619684D01*
X174948853Y-78446978D01*
X174899052Y-78352316D01*
X174647134Y-78096978D01*
X174600125Y-78084948D01*
X174581883Y-78257654D01*
G36*
X177528175Y-77104597D02*
G01*
X177496176Y-77421901D01*
X177528175Y-77461088D01*
X177687125Y-77424386D01*
X177706421Y-77282842D01*
X177608595Y-77062768D01*
X177528175Y-77104597D01*
G37*
X177528175Y-77104597D02*
X177496176Y-77421901D01*
X177528175Y-77461088D01*
X177687125Y-77424386D01*
X177706421Y-77282842D01*
X177608595Y-77062768D01*
X177528175Y-77104597D01*
G36*
X173779778Y-77188180D02*
G01*
X173829579Y-77282842D01*
X174081497Y-77538180D01*
X174128506Y-77550211D01*
X174146748Y-77377505D01*
X174096947Y-77282842D01*
X173845029Y-77027505D01*
X173798020Y-77015474D01*
X173779778Y-77188180D01*
G37*
X173779778Y-77188180D02*
X173829579Y-77282842D01*
X174081497Y-77538180D01*
X174128506Y-77550211D01*
X174146748Y-77377505D01*
X174096947Y-77282842D01*
X173845029Y-77027505D01*
X173798020Y-77015474D01*
X173779778Y-77188180D01*
G36*
X176746689Y-75584544D02*
G01*
X177051789Y-76002404D01*
X177060554Y-76012842D01*
X177445780Y-76479162D01*
X177636729Y-76725825D01*
X177702469Y-76635060D01*
X177706421Y-76544396D01*
X177535032Y-76153825D01*
X177158112Y-75702956D01*
X176781529Y-75425928D01*
X176710095Y-75411263D01*
X176746689Y-75584544D01*
G37*
X176746689Y-75584544D02*
X177051789Y-76002404D01*
X177060554Y-76012842D01*
X177445780Y-76479162D01*
X177636729Y-76725825D01*
X177702469Y-76635060D01*
X177706421Y-76544396D01*
X177535032Y-76153825D01*
X177158112Y-75702956D01*
X176781529Y-75425928D01*
X176710095Y-75411263D01*
X176746689Y-75584544D01*
G36*
X172982912Y-75233018D02*
G01*
X172950913Y-75550322D01*
X172982912Y-75589509D01*
X173141862Y-75552807D01*
X173161158Y-75411263D01*
X173063332Y-75191189D01*
X172982912Y-75233018D01*
G37*
X172982912Y-75233018D02*
X172950913Y-75550322D01*
X172982912Y-75589509D01*
X173141862Y-75552807D01*
X173161158Y-75411263D01*
X173063332Y-75191189D01*
X172982912Y-75233018D01*
G36*
X177250362Y-73740211D02*
G01*
X177206128Y-74519318D01*
X177250362Y-74943369D01*
X177316481Y-75070071D01*
X177358432Y-74734153D01*
X177366231Y-74341790D01*
X177345373Y-73763513D01*
X177292048Y-73604767D01*
X177250362Y-73740211D01*
G37*
X177250362Y-73740211D02*
X177206128Y-74519318D01*
X177250362Y-74943369D01*
X177316481Y-75070071D01*
X177358432Y-74734153D01*
X177366231Y-74341790D01*
X177345373Y-73763513D01*
X177292048Y-73604767D01*
X177250362Y-73740211D01*
G36*
X172895825Y-74235946D02*
G01*
X172860612Y-74270491D01*
X172649422Y-74621042D01*
X172678057Y-74749917D01*
X172876945Y-74669681D01*
X173010284Y-74420163D01*
X173091687Y-74107801D01*
X172895825Y-74235946D01*
G37*
X172895825Y-74235946D02*
X172860612Y-74270491D01*
X172649422Y-74621042D01*
X172678057Y-74749917D01*
X172876945Y-74669681D01*
X173010284Y-74420163D01*
X173091687Y-74107801D01*
X172895825Y-74235946D01*
G36*
X175032737Y-74475474D02*
G01*
X175166421Y-74609158D01*
X175300105Y-74475474D01*
X175166421Y-74341790D01*
X175032737Y-74475474D01*
G37*
X175032737Y-74475474D02*
X175166421Y-74609158D01*
X175300105Y-74475474D01*
X175166421Y-74341790D01*
X175032737Y-74475474D01*
G36*
X178588392Y-72028535D02*
G01*
X178862706Y-72394125D01*
X179052674Y-72634919D01*
X179575812Y-73315653D01*
X180002893Y-73903154D01*
X180049696Y-73971761D01*
X180188339Y-74127133D01*
X180087092Y-73840618D01*
X180010227Y-73672738D01*
X179536919Y-72916016D01*
X179013204Y-72335895D01*
X178640396Y-72023046D01*
X178588392Y-72028535D01*
G37*
X178588392Y-72028535D02*
X178862706Y-72394125D01*
X179052674Y-72634919D01*
X179575812Y-73315653D01*
X180002893Y-73903154D01*
X180049696Y-73971761D01*
X180188339Y-74127133D01*
X180087092Y-73840618D01*
X180010227Y-73672738D01*
X179536919Y-72916016D01*
X179013204Y-72335895D01*
X178640396Y-72023046D01*
X178588392Y-72028535D01*
G36*
X174498000Y-74208106D02*
G01*
X174631684Y-74341790D01*
X174765368Y-74208106D01*
X174631684Y-74074421D01*
X174498000Y-74208106D01*
G37*
X174498000Y-74208106D02*
X174631684Y-74341790D01*
X174765368Y-74208106D01*
X174631684Y-74074421D01*
X174498000Y-74208106D01*
G36*
X177747732Y-72043627D02*
G01*
X177460700Y-72312838D01*
X177519580Y-72467608D01*
X177556957Y-72470211D01*
X177783102Y-72280304D01*
X177865636Y-72161532D01*
X177897149Y-71978573D01*
X177747732Y-72043627D01*
G37*
X177747732Y-72043627D02*
X177460700Y-72312838D01*
X177519580Y-72467608D01*
X177556957Y-72470211D01*
X177783102Y-72280304D01*
X177865636Y-72161532D01*
X177897149Y-71978573D01*
X177747732Y-72043627D01*
G36*
X181992459Y-81220581D02*
G01*
X181892053Y-81415522D01*
X181823638Y-81792259D01*
X182003245Y-81719138D01*
X182128994Y-81542949D01*
X182211178Y-81193014D01*
X182177803Y-81130365D01*
X181992459Y-81220581D01*
G37*
X181992459Y-81220581D02*
X181892053Y-81415522D01*
X181823638Y-81792259D01*
X182003245Y-81719138D01*
X182128994Y-81542949D01*
X182211178Y-81193014D01*
X182177803Y-81130365D01*
X181992459Y-81220581D01*
G36*
X182519052Y-80090211D02*
G01*
X182652737Y-80223895D01*
X182786421Y-80090211D01*
X182652737Y-79956527D01*
X182519052Y-80090211D01*
G37*
X182519052Y-80090211D02*
X182652737Y-80223895D01*
X182786421Y-80090211D01*
X182652737Y-79956527D01*
X182519052Y-80090211D01*
G36*
X182786421Y-79555474D02*
G01*
X182920105Y-79689158D01*
X183053789Y-79555474D01*
X182920105Y-79421790D01*
X182786421Y-79555474D01*
G37*
X182786421Y-79555474D02*
X182920105Y-79689158D01*
X183053789Y-79555474D01*
X182920105Y-79421790D01*
X182786421Y-79555474D01*
%TD*%
D12*
%TO.P,PS1,4*%
%TO.N,3V3*%
X125262000Y-79312000D03*
%TO.P,PS1,2*%
%TO.N,Net-(F1-Pad2)*%
X120062000Y-108712000D03*
D13*
%TO.P,PS1,1*%
%TO.N,Net-(J1-Pad2)*%
X115062000Y-108712000D03*
D12*
%TO.P,PS1,3*%
%TO.N,GND*%
X109862000Y-79312000D03*
%TD*%
D14*
%TO.P,F1,2*%
%TO.N,Net-(F1-Pad2)*%
X123190000Y-117354000D03*
%TO.P,F1,1*%
%TO.N,Net-(F1-Pad1)*%
X123190000Y-139954000D03*
%TD*%
D15*
%TO.P,J6,3*%
%TO.N,22*%
X162814000Y-128778000D03*
D16*
%TO.P,J6,2*%
%TO.N,SCL*%
X165354000Y-128778000D03*
D15*
%TO.P,J6,1*%
%TO.N,15*%
X167894000Y-128778000D03*
%TD*%
%TA.AperFunction,ComponentPad*%
D17*
%TO.P,C1,2*%
%TO.N,GND*%
G36*
X196602000Y-55864000D02*
G01*
X196602000Y-53864000D01*
X198602000Y-53864000D01*
X198602000Y-55864000D01*
X196602000Y-55864000D01*
G37*
%TD.AperFunction*%
D16*
%TO.P,C1,1*%
%TO.N,3V3*%
X193802000Y-54864000D03*
%TD*%
D15*
%TO.P,J5,3*%
%TO.N,21*%
X175260000Y-129794000D03*
D16*
%TO.P,J5,2*%
%TO.N,SDA*%
X177800000Y-129794000D03*
D15*
%TO.P,J5,1*%
%TO.N,4*%
X180340000Y-129794000D03*
%TD*%
D18*
%TO.P,R1,2*%
%TO.N,35*%
X170434000Y-65024000D03*
D19*
%TO.P,R1,1*%
%TO.N,Net-(J4-Pad3)*%
X178054000Y-65024000D03*
%TD*%
D15*
%TO.P,J4,1*%
%TO.N,GND*%
X194310000Y-64516000D03*
D16*
%TO.P,J4,2*%
%TO.N,3V3*%
X194310000Y-67056000D03*
%TO.P,J4,3*%
%TO.N,Net-(J4-Pad3)*%
X194310000Y-69596000D03*
D15*
%TO.P,J4,4*%
%TO.N,Net-(J4-Pad4)*%
X194310000Y-72136000D03*
%TD*%
D20*
%TO.P,J1,2*%
%TO.N,Net-(J1-Pad2)*%
X108712000Y-132080000D03*
D14*
%TO.P,J1,1*%
%TO.N,Net-(F1-Pad1)*%
X113792000Y-132080000D03*
%TD*%
D21*
%TO.P,U1,18*%
%TO.N,Net-(U1-Pad18)*%
X137748000Y-113538000D03*
%TO.P,U1,19*%
%TO.N,GND*%
X160448000Y-113538000D03*
D22*
%TO.P,U1,17*%
%TO.N,Net-(U1-Pad17)*%
X137748000Y-110998000D03*
%TO.P,U1,20*%
%TO.N,Net-(U1-Pad20)*%
X160448000Y-110998000D03*
%TO.P,U1,16*%
%TO.N,Net-(U1-Pad16)*%
X137748000Y-108458000D03*
%TO.P,U1,21*%
%TO.N,3V3*%
X160448000Y-108458000D03*
%TO.P,U1,15*%
%TO.N,Net-(U1-Pad15)*%
X137748000Y-105918000D03*
D21*
%TO.P,U1,22*%
%TO.N,Net-(U1-Pad22)*%
X160448000Y-105918000D03*
D22*
%TO.P,U1,14*%
%TO.N,Net-(U1-Pad14)*%
X137748000Y-103378000D03*
%TO.P,U1,23*%
%TO.N,Net-(U1-Pad23)*%
X160448000Y-103378000D03*
%TO.P,U1,13*%
%TO.N,Net-(U1-Pad13)*%
X137748000Y-100838000D03*
%TO.P,U1,24*%
%TO.N,Net-(U1-Pad24)*%
X160448000Y-100838000D03*
%TO.P,U1,12*%
%TO.N,Net-(U1-Pad12)*%
X137748000Y-98298000D03*
%TO.P,U1,25*%
%TO.N,Net-(U1-Pad25)*%
X160448000Y-98298000D03*
%TO.P,U1,11*%
%TO.N,Net-(U1-Pad11)*%
X137748000Y-95758000D03*
%TO.P,U1,26*%
%TO.N,Net-(U1-Pad26)*%
X160448000Y-95758000D03*
%TO.P,U1,10*%
%TO.N,35*%
X137748000Y-93218000D03*
%TO.P,U1,27*%
%TO.N,22*%
X160448000Y-93218000D03*
%TO.P,U1,9*%
%TO.N,Net-(U1-Pad9)*%
X137748000Y-90678000D03*
%TO.P,U1,28*%
%TO.N,Net-(U1-Pad28)*%
X160448000Y-90678000D03*
%TO.P,U1,8*%
%TO.N,Net-(U1-Pad8)*%
X137748000Y-88138000D03*
%TO.P,U1,29*%
%TO.N,Net-(U1-Pad29)*%
X160448000Y-88138000D03*
%TO.P,U1,7*%
%TO.N,Net-(U1-Pad7)*%
X137748000Y-85598000D03*
%TO.P,U1,30*%
%TO.N,Net-(U1-Pad30)*%
X160448000Y-85598000D03*
%TO.P,U1,6*%
%TO.N,Net-(U1-Pad6)*%
X137748000Y-83058000D03*
%TO.P,U1,31*%
%TO.N,Net-(U1-Pad31)*%
X160448000Y-83058000D03*
%TO.P,U1,5*%
%TO.N,Net-(U1-Pad5)*%
X137748000Y-80518000D03*
%TO.P,U1,32*%
%TO.N,15*%
X160448000Y-80518000D03*
%TO.P,U1,4*%
%TO.N,Net-(U1-Pad4)*%
X137748000Y-77978000D03*
%TO.P,U1,33*%
%TO.N,Net-(U1-Pad33)*%
X160448000Y-77978000D03*
%TO.P,U1,3*%
%TO.N,Net-(U1-Pad3)*%
X137748000Y-75438000D03*
%TO.P,U1,34*%
%TO.N,4*%
X160448000Y-75438000D03*
%TO.P,U1,2*%
%TO.N,Net-(U1-Pad2)*%
X137748000Y-72898000D03*
%TO.P,U1,35*%
%TO.N,17*%
X160448000Y-72898000D03*
%TO.P,U1,1*%
%TO.N,21*%
X137748000Y-70358000D03*
%TO.P,U1,36*%
%TO.N,Net-(U1-Pad36)*%
X160448000Y-70358000D03*
%TD*%
D21*
%TO.P,U3,3*%
%TO.N,GND*%
X188976000Y-88392000D03*
D22*
%TO.P,U3,2*%
%TO.N,3V3*%
X188976000Y-90932000D03*
%TO.P,U3,1*%
%TO.N,17*%
X188976000Y-93472000D03*
%TD*%
D23*
%TO.P,U2,8*%
%TO.N,Net-(U2-Pad8)*%
X184912000Y-118872000D03*
%TO.P,U2,7*%
%TO.N,Net-(U2-Pad7)*%
X182372000Y-118872000D03*
%TO.P,U2,6*%
%TO.N,Net-(U2-Pad6)*%
X179832000Y-118872000D03*
%TO.P,U2,5*%
%TO.N,GND*%
X177292000Y-118872000D03*
%TO.P,U2,4*%
%TO.N,SDA*%
X174752000Y-118872000D03*
%TO.P,U2,3*%
%TO.N,SCL*%
X172212000Y-118872000D03*
D24*
%TO.P,U2,2*%
%TO.N,GND*%
X169672000Y-118872000D03*
D23*
%TO.P,U2,1*%
%TO.N,3V3*%
X167132000Y-118872000D03*
%TD*%
D25*
%TO.N,GND*%
X176022000Y-99568000D03*
X183388000Y-88392000D03*
X182626000Y-94234000D03*
%TO.N,3V3*%
X166878000Y-99568000D03*
X180594000Y-90932000D03*
X143510000Y-62738000D03*
X131064000Y-72390000D03*
%TO.N,15*%
X174498000Y-125476000D03*
X181102000Y-123698000D03*
%TO.N,22*%
X146812000Y-94234000D03*
X154686000Y-93472000D03*
%TO.N,35*%
X152400000Y-67818000D03*
X145542000Y-74676000D03*
%TD*%
D26*
%TO.N,GND*%
X160448000Y-113538000D02*
X160448000Y-115236000D01*
X160448000Y-115236000D02*
X163068000Y-117856000D01*
X163068000Y-117856000D02*
X163068000Y-119380000D01*
X163068000Y-119380000D02*
X165608000Y-121920000D01*
X165608000Y-121920000D02*
X168402000Y-121920000D01*
X169672000Y-120650000D02*
X169672000Y-118872000D01*
X168402000Y-121920000D02*
X169672000Y-120650000D01*
X183388000Y-88392000D02*
X188976000Y-88392000D01*
X198882000Y-72136000D02*
X194310000Y-72136000D01*
X200152000Y-73406000D02*
X198882000Y-72136000D01*
X194310000Y-64516000D02*
X198628000Y-64516000D01*
X200152000Y-66040000D02*
X200152000Y-73406000D01*
X197602000Y-54864000D02*
X197602000Y-57140000D01*
X199517000Y-59055000D02*
X199517000Y-65405000D01*
X197602000Y-57140000D02*
X199517000Y-59055000D01*
X198628000Y-64516000D02*
X199517000Y-65405000D01*
X199517000Y-65405000D02*
X200152000Y-66040000D01*
X177038000Y-118618000D02*
X177292000Y-118872000D01*
X169672000Y-105918000D02*
X176022000Y-99568000D01*
X177292000Y-118872000D02*
X177292000Y-116332000D01*
X173482000Y-112522000D02*
X169672000Y-112522000D01*
X177292000Y-116332000D02*
X173482000Y-112522000D01*
X169672000Y-118872000D02*
X169672000Y-112522000D01*
X169672000Y-112522000D02*
X169672000Y-105918000D01*
X188468000Y-100076000D02*
X182626000Y-94234000D01*
X200152000Y-100076000D02*
X200152000Y-73406000D01*
X200152000Y-100076000D02*
X188468000Y-100076000D01*
X114292095Y-79312000D02*
X109862000Y-79312000D01*
X126294095Y-67310000D02*
X114292095Y-79312000D01*
X160448000Y-113538000D02*
X157480000Y-113538000D01*
X149860000Y-105918000D02*
X149860000Y-74422000D01*
X157480000Y-113538000D02*
X149860000Y-105918000D01*
X149860000Y-74422000D02*
X142748000Y-67310000D01*
X142748000Y-67310000D02*
X126294095Y-67310000D01*
%TO.N,3V3*%
X160448000Y-108458000D02*
X162560000Y-108458000D01*
X167132000Y-113030000D02*
X167132000Y-118872000D01*
X162560000Y-108458000D02*
X167132000Y-113030000D01*
X165100000Y-101346000D02*
X166878000Y-99568000D01*
X162560000Y-108458000D02*
X165100000Y-105918000D01*
X165100000Y-105918000D02*
X165100000Y-101346000D01*
X185420000Y-90932000D02*
X188976000Y-90932000D01*
X180594000Y-90932000D02*
X185420000Y-90932000D01*
X194310000Y-67056000D02*
X193107919Y-67056000D01*
X191770000Y-54864000D02*
X186342960Y-60291040D01*
X193107919Y-67056000D02*
X186342960Y-60291040D01*
X193802000Y-54864000D02*
X191770000Y-54864000D01*
X125262000Y-78192000D02*
X131064000Y-72390000D01*
X125262000Y-79312000D02*
X125262000Y-78192000D01*
X185995919Y-59944000D02*
X186342960Y-60291040D01*
X143510000Y-62738000D02*
X146304000Y-59944000D01*
X146304000Y-59944000D02*
X185995919Y-59944000D01*
X155702000Y-108458000D02*
X160448000Y-108458000D01*
X152400000Y-105156000D02*
X155702000Y-108458000D01*
X143510000Y-62738000D02*
X152400000Y-71628000D01*
X152400000Y-71628000D02*
X152400000Y-105156000D01*
%TO.N,Net-(J1-Pad2)*%
X115062000Y-108712000D02*
X115062000Y-116840000D01*
X108712000Y-123190000D02*
X108712000Y-132080000D01*
X115062000Y-116840000D02*
X108712000Y-123190000D01*
%TO.N,4*%
X185420000Y-129794000D02*
X180340000Y-129794000D01*
X166878000Y-89408000D02*
X171958000Y-94488000D01*
X163830000Y-75438000D02*
X166878000Y-78486000D01*
X160448000Y-75438000D02*
X163830000Y-75438000D01*
X166878000Y-78486000D02*
X166878000Y-89408000D01*
X171958000Y-94488000D02*
X178562000Y-94488000D01*
X178562000Y-94488000D02*
X191262000Y-107188000D01*
X191262000Y-123952000D02*
X185420000Y-129794000D01*
X191262000Y-107188000D02*
X191262000Y-123952000D01*
%TO.N,15*%
X163576000Y-80518000D02*
X164084000Y-81026000D01*
X164084000Y-81026000D02*
X164084000Y-91948000D01*
X164084000Y-91948000D02*
X169164000Y-97028000D01*
X160448000Y-80518000D02*
X163576000Y-80518000D01*
X169164000Y-97028000D02*
X178054000Y-97028000D01*
X171196000Y-128778000D02*
X174498000Y-125476000D01*
X167894000Y-128778000D02*
X171196000Y-128778000D01*
X181102000Y-123698000D02*
X187960000Y-123698000D01*
X187960000Y-123698000D02*
X189230000Y-122428000D01*
X189230000Y-122428000D02*
X189230000Y-108204000D01*
X178054000Y-97028000D02*
X183642000Y-102616000D01*
X189230000Y-108204000D02*
X183642000Y-102616000D01*
X183642000Y-102616000D02*
X183896000Y-102870000D01*
%TO.N,22*%
X160448000Y-93218000D02*
X156718000Y-93218000D01*
X156464000Y-93472000D02*
X156718000Y-93218000D01*
X154686000Y-93472000D02*
X156464000Y-93472000D01*
X143764000Y-97282000D02*
X146812000Y-94234000D01*
X143764000Y-120904000D02*
X143764000Y-97282000D01*
X151638000Y-128778000D02*
X143764000Y-120904000D01*
X162814000Y-128778000D02*
X151638000Y-128778000D01*
%TO.N,21*%
X175260000Y-134112000D02*
X175260000Y-129794000D01*
X173736000Y-135636000D02*
X175260000Y-134112000D01*
X137248000Y-70358000D02*
X134112000Y-73494000D01*
X134112000Y-73494000D02*
X134112000Y-125476000D01*
X137748000Y-70358000D02*
X137248000Y-70358000D01*
X144272000Y-135636000D02*
X173736000Y-135636000D01*
X134112000Y-125476000D02*
X144272000Y-135636000D01*
%TO.N,17*%
X160448000Y-72898000D02*
X167640000Y-72898000D01*
X167640000Y-72898000D02*
X169926000Y-70612000D01*
X169926000Y-70612000D02*
X183896000Y-70612000D01*
X183896000Y-70612000D02*
X194564000Y-81280000D01*
X194564000Y-90384000D02*
X191476000Y-93472000D01*
X191476000Y-93472000D02*
X188976000Y-93472000D01*
X194564000Y-81280000D02*
X194564000Y-90384000D01*
%TO.N,Net-(J4-Pad3)*%
X194310000Y-69596000D02*
X191008000Y-69596000D01*
X186436000Y-65024000D02*
X178054000Y-65024000D01*
X191008000Y-69596000D02*
X186436000Y-65024000D01*
%TO.N,35*%
X137748000Y-93218000D02*
X140970000Y-93218000D01*
X145542000Y-88646000D02*
X145542000Y-74676000D01*
X140970000Y-93218000D02*
X145542000Y-88646000D01*
X152400000Y-67818000D02*
X155194000Y-65024000D01*
X155194000Y-65024000D02*
X170434000Y-65024000D01*
%TO.N,SDA*%
X174752000Y-118872000D02*
X174752000Y-121920000D01*
X177800000Y-124968000D02*
X177800000Y-129794000D01*
X174752000Y-121920000D02*
X177800000Y-124968000D01*
%TO.N,SCL*%
X172212000Y-121499998D02*
X172212000Y-118872000D01*
X165354000Y-128778000D02*
X166203999Y-127928001D01*
X166203999Y-127507999D02*
X172212000Y-121499998D01*
X166203999Y-127928001D02*
X166203999Y-127507999D01*
%TO.N,Net-(F1-Pad2)*%
X120062000Y-114226000D02*
X123190000Y-117354000D01*
X120062000Y-108712000D02*
X120062000Y-114226000D01*
%TO.N,Net-(F1-Pad1)*%
X115316000Y-132080000D02*
X123190000Y-139954000D01*
X113792000Y-132080000D02*
X115316000Y-132080000D01*
%TD*%
M02*
