M48
; DRILL file {KiCad (5.1.6)-1} date 03/02/21 09:32:03
; FORMAT={-:-/ absolute / inch / decimal}
; #@! TF.CreationDate,2021-03-02T09:32:03+01:00
; #@! TF.GenerationSoftware,Kicad,Pcbnew,(5.1.6)-1
FMAT,2
INCH
T1C0.0276
T2C0.0315
T3C0.0394
T4C0.0591
T5C0.0598
%
G90
G05
T1
X5.16Y-2.85
X5.65Y-2.47
X5.73Y-2.94
X5.78Y-3.71
X6.0Y-2.67
X6.09Y-3.68
X6.57Y-3.92
X6.87Y-4.94
X6.93Y-3.92
X7.11Y-3.58
X7.13Y-4.87
X7.19Y-3.71
X7.22Y-3.48
T2
X6.71Y-2.56
X7.01Y-2.56
X6.41Y-5.07
X6.51Y-5.07
X6.61Y-5.07
X6.58Y-4.68
X6.68Y-4.68
X6.78Y-4.68
X6.88Y-4.68
X6.98Y-4.68
X7.08Y-4.68
X7.18Y-4.68
X7.28Y-4.68
X6.9Y-5.11
X7.0Y-5.11
X7.1Y-5.11
X7.44Y-3.48
X7.44Y-3.58
X7.44Y-3.68
X5.4231Y-2.77
X5.4231Y-2.87
X5.4231Y-2.97
X5.4231Y-3.07
X5.4231Y-3.17
X5.4231Y-3.27
X5.4231Y-3.37
X5.4231Y-3.47
X5.4231Y-3.57
X5.4231Y-3.67
X5.4231Y-3.77
X5.4231Y-3.87
X5.4231Y-3.97
X5.4231Y-4.07
X5.4231Y-4.17
X5.4231Y-4.27
X5.4231Y-4.37
X5.4231Y-4.47
X6.3169Y-2.77
X6.3169Y-2.87
X6.3169Y-2.97
X6.3169Y-3.07
X6.3169Y-3.17
X6.3169Y-3.27
X6.3169Y-3.37
X6.3169Y-3.47
X6.3169Y-3.57
X6.3169Y-3.67
X6.3169Y-3.77
X6.3169Y-3.87
X6.3169Y-3.97
X6.3169Y-4.07
X6.3169Y-4.17
X6.3169Y-4.27
X6.3169Y-4.37
X6.3169Y-4.47
X7.65Y-2.54
X7.65Y-2.64
X7.65Y-2.74
X7.65Y-2.84
T3
X7.63Y-2.16
X7.7796Y-2.16
X4.3253Y-3.1225
X4.53Y-4.28
X4.7269Y-4.28
X4.9316Y-3.1225
T4
X4.85Y-4.6202
X4.85Y-5.51
T5
X4.28Y-5.2
X4.48Y-5.2
T0
M30
