M48
; DRILL file {KiCad (5.1.6)-1} date 03/04/21 09:10:36
; FORMAT={-:-/ absolute / inch / decimal}
; #@! TF.CreationDate,2021-03-04T09:10:36+01:00
; #@! TF.GenerationSoftware,Kicad,Pcbnew,(5.1.6)-1
FMAT,2
INCH
T1C0.0315
T2C0.0354
T3C0.0394
T4C0.0433
T5C0.0598
%
G90
G05
T1
X6.75Y-4.8
X7.25Y-4.8
X5.9Y-3.7
T2
X7.75Y-3.35
X7.75Y-3.45
X7.75Y-3.55
X7.75Y-2.95
X7.75Y-3.05
X7.75Y-3.15
X8.1Y-3.1
X8.1Y-3.2
X8.1Y-3.3
X8.1Y-3.4
X8.1Y-3.5
X8.1Y-3.6
X8.1Y-3.7
X8.1Y-3.8
X6.2Y-2.9
X6.2Y-3.0
X6.2Y-3.1
X6.2Y-3.2
X6.2Y-3.3
X6.2Y-3.4
X6.2Y-3.5
X6.2Y-3.6
X6.2Y-3.7
X6.2Y-3.8
X6.2Y-3.9
X6.2Y-4.0
X6.2Y-4.1
X6.2Y-4.2
X6.2Y-4.3
X6.2Y-4.4
X6.2Y-4.5
X6.2Y-4.6
X7.15Y-2.9
X7.15Y-3.0
X7.15Y-3.1
X7.15Y-3.2
X7.15Y-3.3
X7.15Y-3.4
X7.15Y-3.5
X7.15Y-3.6
X7.15Y-3.7
X7.15Y-3.8
X7.15Y-3.9
X7.15Y-4.0
X7.15Y-4.1
X7.15Y-4.2
X7.15Y-4.3
X7.15Y-4.4
X7.15Y-4.5
X7.15Y-4.6
T3
X7.537Y-4.4535
X7.537Y-4.6465
X7.663Y-4.4535
X7.663Y-4.6465
X5.9Y-3.4
X5.9Y-3.5
X5.9Y-3.6
X4.6953Y-2.5925
X4.9Y-3.75
X5.0969Y-3.75
X5.3016Y-2.5925
X8.1Y-4.45
X8.1Y-4.5996
T4
X4.6Y-4.75
X5.5Y-4.75
T5
X4.5Y-4.15
X4.5Y-4.35
T0
M30
