%TF.GenerationSoftware,KiCad,Pcbnew,(5.1.6)-1*%
%TF.CreationDate,2021-03-04T10:09:37+01:00*%
%TF.ProjectId,BukaerakoErronkaV1,42756b61-6572-4616-9b6f-4572726f6e6b,rev?*%
%TF.SameCoordinates,Original*%
%TF.FileFunction,Copper,L2,Bot*%
%TF.FilePolarity,Positive*%
%FSLAX46Y46*%
G04 Gerber Fmt 4.6, Leading zero omitted, Abs format (unit mm)*
G04 Created by KiCad (PCBNEW (5.1.6)-1) date 2021-03-04 10:09:37*
%MOMM*%
%LPD*%
G01*
G04 APERTURE LIST*
%TA.AperFunction,NonConductor*%
%ADD10C,0.150000*%
%TD*%
%TA.AperFunction,NonConductor*%
%ADD11C,0.500000*%
%TD*%
%TA.AperFunction,ComponentPad*%
%ADD12O,3.000000X2.000000*%
%TD*%
%TA.AperFunction,ComponentPad*%
%ADD13O,2.000000X3.000000*%
%TD*%
%TA.AperFunction,ComponentPad*%
%ADD14O,4.000000X3.000000*%
%TD*%
%TA.AperFunction,ComponentPad*%
%ADD15O,3.000000X4.000000*%
%TD*%
%TA.AperFunction,ComponentPad*%
%ADD16R,3.000000X3.000000*%
%TD*%
%TA.AperFunction,ComponentPad*%
%ADD17O,3.000000X3.000000*%
%TD*%
%TA.AperFunction,Conductor*%
%ADD18C,1.000000*%
%TD*%
G04 APERTURE END LIST*
D10*
X126531904Y-140057142D02*
X126484285Y-140104761D01*
X126341428Y-140152380D01*
X126246190Y-140152380D01*
X126103333Y-140104761D01*
X126008095Y-140009523D01*
X125960476Y-139914285D01*
X125912857Y-139723809D01*
X125912857Y-139580952D01*
X125960476Y-139390476D01*
X126008095Y-139295238D01*
X126103333Y-139200000D01*
X126246190Y-139152380D01*
X126341428Y-139152380D01*
X126484285Y-139200000D01*
X126531904Y-139247619D01*
X127103333Y-140152380D02*
X127008095Y-140104761D01*
X126960476Y-140057142D01*
X126912857Y-139961904D01*
X126912857Y-139676190D01*
X126960476Y-139580952D01*
X127008095Y-139533333D01*
X127103333Y-139485714D01*
X127246190Y-139485714D01*
X127341428Y-139533333D01*
X127389047Y-139580952D01*
X127436666Y-139676190D01*
X127436666Y-139961904D01*
X127389047Y-140057142D01*
X127341428Y-140104761D01*
X127246190Y-140152380D01*
X127103333Y-140152380D01*
X127865238Y-139485714D02*
X127865238Y-140152380D01*
X127865238Y-139580952D02*
X127912857Y-139533333D01*
X128008095Y-139485714D01*
X128150952Y-139485714D01*
X128246190Y-139533333D01*
X128293809Y-139628571D01*
X128293809Y-140152380D01*
X129150952Y-140104761D02*
X129055714Y-140152380D01*
X128865238Y-140152380D01*
X128770000Y-140104761D01*
X128722380Y-140009523D01*
X128722380Y-139628571D01*
X128770000Y-139533333D01*
X128865238Y-139485714D01*
X129055714Y-139485714D01*
X129150952Y-139533333D01*
X129198571Y-139628571D01*
X129198571Y-139723809D01*
X128722380Y-139819047D01*
X130055714Y-140104761D02*
X129960476Y-140152380D01*
X129770000Y-140152380D01*
X129674761Y-140104761D01*
X129627142Y-140057142D01*
X129579523Y-139961904D01*
X129579523Y-139676190D01*
X129627142Y-139580952D01*
X129674761Y-139533333D01*
X129770000Y-139485714D01*
X129960476Y-139485714D01*
X130055714Y-139533333D01*
X130341428Y-139485714D02*
X130722380Y-139485714D01*
X130484285Y-139152380D02*
X130484285Y-140009523D01*
X130531904Y-140104761D01*
X130627142Y-140152380D01*
X130722380Y-140152380D01*
D11*
X96725714Y-109196761D02*
X96725714Y-110625333D01*
X96820952Y-110911047D01*
X97011428Y-111101523D01*
X97297142Y-111196761D01*
X97487619Y-111196761D01*
X95773333Y-110149142D02*
X95106666Y-110149142D01*
X94820952Y-111196761D02*
X95773333Y-111196761D01*
X95773333Y-109196761D01*
X94820952Y-109196761D01*
X93582857Y-110244380D02*
X93582857Y-111196761D01*
X94249523Y-109196761D02*
X93582857Y-110244380D01*
X92916190Y-109196761D01*
X92344761Y-111101523D02*
X92059047Y-111196761D01*
X91582857Y-111196761D01*
X91392380Y-111101523D01*
X91297142Y-111006285D01*
X91201904Y-110815809D01*
X91201904Y-110625333D01*
X91297142Y-110434857D01*
X91392380Y-110339619D01*
X91582857Y-110244380D01*
X91963809Y-110149142D01*
X92154285Y-110053904D01*
X92249523Y-109958666D01*
X92344761Y-109768190D01*
X92344761Y-109577714D01*
X92249523Y-109387238D01*
X92154285Y-109292000D01*
X91963809Y-109196761D01*
X91487619Y-109196761D01*
X91201904Y-109292000D01*
X89963809Y-109196761D02*
X89582857Y-109196761D01*
X89392380Y-109292000D01*
X89201904Y-109482476D01*
X89106666Y-109863428D01*
X89106666Y-110530095D01*
X89201904Y-110911047D01*
X89392380Y-111101523D01*
X89582857Y-111196761D01*
X89963809Y-111196761D01*
X90154285Y-111101523D01*
X90344761Y-110911047D01*
X90440000Y-110530095D01*
X90440000Y-109863428D01*
X90344761Y-109482476D01*
X90154285Y-109292000D01*
X89963809Y-109196761D01*
X88249523Y-111196761D02*
X88249523Y-109196761D01*
X87106666Y-111196761D01*
X87106666Y-109196761D01*
X95487619Y-114696761D02*
X95487619Y-112696761D01*
X94820952Y-114125333D01*
X94154285Y-112696761D01*
X94154285Y-114696761D01*
X93297142Y-114125333D02*
X92344761Y-114125333D01*
X93487619Y-114696761D02*
X92820952Y-112696761D01*
X92154285Y-114696761D01*
X90344761Y-114696761D02*
X91011428Y-113744380D01*
X91487619Y-114696761D02*
X91487619Y-112696761D01*
X90725714Y-112696761D01*
X90535238Y-112792000D01*
X90440000Y-112887238D01*
X90344761Y-113077714D01*
X90344761Y-113363428D01*
X90440000Y-113553904D01*
X90535238Y-113649142D01*
X90725714Y-113744380D01*
X91487619Y-113744380D01*
X89773333Y-112696761D02*
X88630476Y-112696761D01*
X89201904Y-114696761D02*
X89201904Y-112696761D01*
X87963809Y-114696761D02*
X87963809Y-112696761D01*
X87011428Y-114696761D02*
X87011428Y-112696761D01*
X85868571Y-114696761D01*
X85868571Y-112696761D01*
X100773333Y-116387238D02*
X100678095Y-116292000D01*
X100487619Y-116196761D01*
X100011428Y-116196761D01*
X99820952Y-116292000D01*
X99725714Y-116387238D01*
X99630476Y-116577714D01*
X99630476Y-116768190D01*
X99725714Y-117053904D01*
X100868571Y-118196761D01*
X99630476Y-118196761D01*
X98392380Y-116196761D02*
X98201904Y-116196761D01*
X98011428Y-116292000D01*
X97916190Y-116387238D01*
X97820952Y-116577714D01*
X97725714Y-116958666D01*
X97725714Y-117434857D01*
X97820952Y-117815809D01*
X97916190Y-118006285D01*
X98011428Y-118101523D01*
X98201904Y-118196761D01*
X98392380Y-118196761D01*
X98582857Y-118101523D01*
X98678095Y-118006285D01*
X98773333Y-117815809D01*
X98868571Y-117434857D01*
X98868571Y-116958666D01*
X98773333Y-116577714D01*
X98678095Y-116387238D01*
X98582857Y-116292000D01*
X98392380Y-116196761D01*
X96963809Y-116387238D02*
X96868571Y-116292000D01*
X96678095Y-116196761D01*
X96201904Y-116196761D01*
X96011428Y-116292000D01*
X95916190Y-116387238D01*
X95820952Y-116577714D01*
X95820952Y-116768190D01*
X95916190Y-117053904D01*
X97059047Y-118196761D01*
X95820952Y-118196761D01*
X93916190Y-118196761D02*
X95059047Y-118196761D01*
X94487619Y-118196761D02*
X94487619Y-116196761D01*
X94678095Y-116482476D01*
X94868571Y-116672952D01*
X95059047Y-116768190D01*
X91630476Y-116101523D02*
X93344761Y-118672952D01*
X90582857Y-116196761D02*
X90392380Y-116196761D01*
X90201904Y-116292000D01*
X90106666Y-116387238D01*
X90011428Y-116577714D01*
X89916190Y-116958666D01*
X89916190Y-117434857D01*
X90011428Y-117815809D01*
X90106666Y-118006285D01*
X90201904Y-118101523D01*
X90392380Y-118196761D01*
X90582857Y-118196761D01*
X90773333Y-118101523D01*
X90868571Y-118006285D01*
X90963809Y-117815809D01*
X91059047Y-117434857D01*
X91059047Y-116958666D01*
X90963809Y-116577714D01*
X90868571Y-116387238D01*
X90773333Y-116292000D01*
X90582857Y-116196761D01*
X89249523Y-116196761D02*
X88011428Y-116196761D01*
X88678095Y-116958666D01*
X88392380Y-116958666D01*
X88201904Y-117053904D01*
X88106666Y-117149142D01*
X88011428Y-117339619D01*
X88011428Y-117815809D01*
X88106666Y-118006285D01*
X88201904Y-118101523D01*
X88392380Y-118196761D01*
X88963809Y-118196761D01*
X89154285Y-118101523D01*
X89249523Y-118006285D01*
X85725714Y-116101523D02*
X87440000Y-118672952D01*
X84678095Y-116196761D02*
X84487619Y-116196761D01*
X84297142Y-116292000D01*
X84201904Y-116387238D01*
X84106666Y-116577714D01*
X84011428Y-116958666D01*
X84011428Y-117434857D01*
X84106666Y-117815809D01*
X84201904Y-118006285D01*
X84297142Y-118101523D01*
X84487619Y-118196761D01*
X84678095Y-118196761D01*
X84868571Y-118101523D01*
X84963809Y-118006285D01*
X85059047Y-117815809D01*
X85154285Y-117434857D01*
X85154285Y-116958666D01*
X85059047Y-116577714D01*
X84963809Y-116387238D01*
X84868571Y-116292000D01*
X84678095Y-116196761D01*
X82106666Y-118196761D02*
X83249523Y-118196761D01*
X82678095Y-118196761D02*
X82678095Y-116196761D01*
X82868571Y-116482476D01*
X83059047Y-116672952D01*
X83249523Y-116768190D01*
D12*
%TO.P,R5,2*%
%TO.N,Net-(R4-Pad1)*%
X139700000Y-85090000D03*
%TO.P,R5,1*%
%TO.N,SCL*%
X132080000Y-85090000D03*
%TD*%
D13*
%TO.P,R4,2*%
%TO.N,scl*%
X144780000Y-105410000D03*
%TO.P,R4,1*%
%TO.N,Net-(R4-Pad1)*%
X144780000Y-97790000D03*
%TD*%
%TO.P,R3,2*%
%TO.N,Vcc*%
X144780000Y-128270000D03*
%TO.P,R3,1*%
%TO.N,3V3*%
X144780000Y-135890000D03*
%TD*%
D12*
%TO.P,R2,2*%
%TO.N,Net-(J1-Pad1)*%
X127000000Y-88900000D03*
%TO.P,R2,1*%
%TO.N,Vcc*%
X142240000Y-88900000D03*
%TD*%
%TO.P,U1,18*%
%TO.N,GND*%
%TA.AperFunction,ComponentPad*%
G36*
G01*
X115920000Y-139970000D02*
X117920000Y-139970000D01*
G75*
G02*
X118420000Y-140470000I0J-500000D01*
G01*
X118420000Y-141470000D01*
G75*
G02*
X117920000Y-141970000I-500000J0D01*
G01*
X115920000Y-141970000D01*
G75*
G02*
X115420000Y-141470000I0J500000D01*
G01*
X115420000Y-140470000D01*
G75*
G02*
X115920000Y-139970000I500000J0D01*
G01*
G37*
%TD.AperFunction*%
%TO.P,U1,19*%
%TA.AperFunction,ComponentPad*%
G36*
G01*
X138620000Y-139970000D02*
X140620000Y-139970000D01*
G75*
G02*
X141120000Y-140470000I0J-500000D01*
G01*
X141120000Y-141470000D01*
G75*
G02*
X140620000Y-141970000I-500000J0D01*
G01*
X138620000Y-141970000D01*
G75*
G02*
X138120000Y-141470000I0J500000D01*
G01*
X138120000Y-140470000D01*
G75*
G02*
X138620000Y-139970000I500000J0D01*
G01*
G37*
%TD.AperFunction*%
%TO.P,U1,17*%
%TO.N,Net-(U1-Pad17)*%
X116920000Y-138430000D03*
%TO.P,U1,20*%
%TO.N,Net-(U1-Pad20)*%
X139620000Y-138430000D03*
%TO.P,U1,16*%
%TO.N,3V3*%
X116920000Y-135890000D03*
%TO.P,U1,21*%
X139620000Y-135890000D03*
%TO.P,U1,15*%
%TO.N,Net-(U1-Pad15)*%
X116920000Y-133350000D03*
%TO.P,U1,22*%
%TO.N,GND*%
%TA.AperFunction,ComponentPad*%
G36*
G01*
X138620000Y-132350000D02*
X140620000Y-132350000D01*
G75*
G02*
X141120000Y-132850000I0J-500000D01*
G01*
X141120000Y-133850000D01*
G75*
G02*
X140620000Y-134350000I-500000J0D01*
G01*
X138620000Y-134350000D01*
G75*
G02*
X138120000Y-133850000I0J500000D01*
G01*
X138120000Y-132850000D01*
G75*
G02*
X138620000Y-132350000I500000J0D01*
G01*
G37*
%TD.AperFunction*%
%TO.P,U1,14*%
%TO.N,Net-(U1-Pad14)*%
X116920000Y-130810000D03*
%TO.P,U1,23*%
%TO.N,Net-(U1-Pad23)*%
X139620000Y-130810000D03*
%TO.P,U1,13*%
%TO.N,Net-(U1-Pad13)*%
X116920000Y-128270000D03*
%TO.P,U1,24*%
%TO.N,Net-(U1-Pad24)*%
X139620000Y-128270000D03*
%TO.P,U1,12*%
%TO.N,Net-(U1-Pad12)*%
X116920000Y-125730000D03*
%TO.P,U1,25*%
%TO.N,Net-(U1-Pad25)*%
X139620000Y-125730000D03*
%TO.P,U1,11*%
%TO.N,Net-(U1-Pad11)*%
X116920000Y-123190000D03*
%TO.P,U1,26*%
%TO.N,Net-(U1-Pad26)*%
X139620000Y-123190000D03*
%TO.P,U1,10*%
%TO.N,Net-(U1-Pad10)*%
X116920000Y-120650000D03*
%TO.P,U1,27*%
%TO.N,22*%
X139620000Y-120650000D03*
%TO.P,U1,9*%
%TO.N,Net-(U1-Pad9)*%
X116920000Y-118110000D03*
%TO.P,U1,28*%
%TO.N,Net-(U1-Pad28)*%
X139620000Y-118110000D03*
%TO.P,U1,8*%
%TO.N,Net-(U1-Pad8)*%
X116920000Y-115570000D03*
%TO.P,U1,29*%
%TO.N,Net-(U1-Pad29)*%
X139620000Y-115570000D03*
%TO.P,U1,7*%
%TO.N,Net-(U1-Pad7)*%
X116920000Y-113030000D03*
%TO.P,U1,30*%
%TO.N,Net-(U1-Pad30)*%
X139620000Y-113030000D03*
%TO.P,U1,6*%
%TO.N,Net-(U1-Pad6)*%
X116920000Y-110490000D03*
%TO.P,U1,31*%
%TO.N,Net-(U1-Pad31)*%
X139620000Y-110490000D03*
%TO.P,U1,5*%
%TO.N,Net-(U1-Pad5)*%
X116920000Y-107950000D03*
%TO.P,U1,32*%
%TO.N,15*%
X139620000Y-107950000D03*
%TO.P,U1,4*%
%TO.N,Net-(U1-Pad4)*%
X116920000Y-105410000D03*
%TO.P,U1,33*%
%TO.N,Net-(U1-Pad33)*%
X139620000Y-105410000D03*
%TO.P,U1,3*%
%TO.N,Net-(U1-Pad3)*%
X116920000Y-102870000D03*
%TO.P,U1,34*%
%TO.N,4*%
X139620000Y-102870000D03*
%TO.P,U1,2*%
%TO.N,DIN*%
X116920000Y-100330000D03*
%TO.P,U1,35*%
%TO.N,17*%
X139620000Y-100330000D03*
%TO.P,U1,1*%
%TO.N,21*%
X116920000Y-97790000D03*
%TO.P,U1,36*%
%TO.N,Net-(U1-Pad36)*%
X139620000Y-97790000D03*
%TD*%
%TO.P,J5,3*%
%TO.N,15*%
X147320000Y-111840000D03*
%TO.P,J5,2*%
%TO.N,scl*%
X147320000Y-114340000D03*
%TO.P,J5,1*%
%TO.N,22*%
X147320000Y-116840000D03*
%TD*%
%TO.P,R1,2*%
%TO.N,DIN*%
X148590000Y-147320000D03*
%TO.P,R1,1*%
%TO.N,Net-(J4-Pad2)*%
X148590000Y-139700000D03*
%TD*%
D14*
%TO.P,PS1,4*%
%TO.N,3V3*%
X83780000Y-129730000D03*
D15*
%TO.P,PS1,2*%
%TO.N,Net-(F1-Pad1)*%
X88980000Y-100330000D03*
%TO.P,PS1,1*%
%TO.N,Net-(J7-Pad2)*%
%TA.AperFunction,ComponentPad*%
G36*
G01*
X93230000Y-98330000D02*
X94730000Y-98330000D01*
G75*
G02*
X95480000Y-99080000I0J-750000D01*
G01*
X95480000Y-101580000D01*
G75*
G02*
X94730000Y-102330000I-750000J0D01*
G01*
X93230000Y-102330000D01*
G75*
G02*
X92480000Y-101580000I0J750000D01*
G01*
X92480000Y-99080000D01*
G75*
G02*
X93230000Y-98330000I750000J0D01*
G01*
G37*
%TD.AperFunction*%
%TO.P,PS1,3*%
%TO.N,GND*%
%TA.AperFunction,ComponentPad*%
G36*
G01*
X97930000Y-128230000D02*
X100430000Y-128230000D01*
G75*
G02*
X101180000Y-128980000I0J-750000D01*
G01*
X101180000Y-130480000D01*
G75*
G02*
X100430000Y-131230000I-750000J0D01*
G01*
X97930000Y-131230000D01*
G75*
G02*
X97180000Y-130480000I0J750000D01*
G01*
X97180000Y-128980000D01*
G75*
G02*
X97930000Y-128230000I750000J0D01*
G01*
G37*
%TD.AperFunction*%
%TD*%
D13*
%TO.P,J1,8*%
%TO.N,Net-(J1-Pad8)*%
X144500000Y-81280000D03*
%TO.P,J1,7*%
%TO.N,Net-(J1-Pad7)*%
X142000000Y-81280000D03*
%TO.P,J1,6*%
%TO.N,Net-(J1-Pad6)*%
X139500000Y-81280000D03*
%TO.P,J1,5*%
%TO.N,GND*%
%TA.AperFunction,ComponentPad*%
G36*
G01*
X136000000Y-82280000D02*
X136000000Y-80280000D01*
G75*
G02*
X136500000Y-79780000I500000J0D01*
G01*
X137500000Y-79780000D01*
G75*
G02*
X138000000Y-80280000I0J-500000D01*
G01*
X138000000Y-82280000D01*
G75*
G02*
X137500000Y-82780000I-500000J0D01*
G01*
X136500000Y-82780000D01*
G75*
G02*
X136000000Y-82280000I0J500000D01*
G01*
G37*
%TD.AperFunction*%
%TO.P,J1,4*%
%TO.N,SDA*%
X134500000Y-81280000D03*
%TO.P,J1,3*%
%TO.N,SCL*%
X132000000Y-81280000D03*
%TO.P,J1,2*%
%TO.N,GND*%
%TA.AperFunction,ComponentPad*%
G36*
G01*
X128500000Y-82280000D02*
X128500000Y-80280000D01*
G75*
G02*
X129000000Y-79780000I500000J0D01*
G01*
X130000000Y-79780000D01*
G75*
G02*
X130500000Y-80280000I0J-500000D01*
G01*
X130500000Y-82280000D01*
G75*
G02*
X130000000Y-82780000I-500000J0D01*
G01*
X129000000Y-82780000D01*
G75*
G02*
X128500000Y-82280000I0J500000D01*
G01*
G37*
%TD.AperFunction*%
%TO.P,J1,1*%
%TO.N,Net-(J1-Pad1)*%
X127000000Y-81280000D03*
%TD*%
%TO.P,J6,3*%
%TO.N,4*%
X132000000Y-92710000D03*
%TO.P,J6,2*%
%TO.N,SDA*%
X129500000Y-92710000D03*
%TO.P,J6,1*%
%TO.N,21*%
X127000000Y-92710000D03*
%TD*%
D12*
%TO.P,J4,4*%
%TO.N,GND*%
X148590000Y-125850000D03*
%TO.P,J4,3*%
%TO.N,3.3V*%
X148590000Y-128350000D03*
%TO.P,J4,2*%
%TO.N,Net-(J4-Pad2)*%
X148590000Y-130850000D03*
%TO.P,J4,1*%
%TO.N,GND*%
%TA.AperFunction,ComponentPad*%
G36*
G01*
X149590000Y-134350000D02*
X147590000Y-134350000D01*
G75*
G02*
X147090000Y-133850000I0J500000D01*
G01*
X147090000Y-132850000D01*
G75*
G02*
X147590000Y-132350000I500000J0D01*
G01*
X149590000Y-132350000D01*
G75*
G02*
X150090000Y-132850000I0J-500000D01*
G01*
X150090000Y-133850000D01*
G75*
G02*
X149590000Y-134350000I-500000J0D01*
G01*
G37*
%TD.AperFunction*%
%TD*%
D15*
%TO.P,F1,2*%
%TO.N,Net-(F1-Pad2)*%
X102610000Y-87630000D03*
%TO.P,F1,1*%
%TO.N,Net-(F1-Pad1)*%
X80010000Y-87630000D03*
%TD*%
%TO.P,J2,3*%
%TO.N,17*%
%TA.AperFunction,ComponentPad*%
G36*
G01*
X151400000Y-99250000D02*
X153400000Y-99250000D01*
G75*
G02*
X153900000Y-99750000I0J-500000D01*
G01*
X153900000Y-100750000D01*
G75*
G02*
X153400000Y-101250000I-500000J0D01*
G01*
X151400000Y-101250000D01*
G75*
G02*
X150900000Y-100750000I0J500000D01*
G01*
X150900000Y-99750000D01*
G75*
G02*
X151400000Y-99250000I500000J0D01*
G01*
G37*
%TD.AperFunction*%
D12*
%TO.P,J2,2*%
%TO.N,Vcc*%
X152400000Y-97750000D03*
%TO.P,J2,1*%
%TO.N,GND*%
X152400000Y-95250000D03*
%TD*%
%TO.P,C1,2*%
%TO.N,GND*%
%TA.AperFunction,ComponentPad*%
G36*
G01*
X105140000Y-139440000D02*
X103140000Y-139440000D01*
G75*
G02*
X102640000Y-138940000I0J500000D01*
G01*
X102640000Y-137940000D01*
G75*
G02*
X103140000Y-137440000I500000J0D01*
G01*
X105140000Y-137440000D01*
G75*
G02*
X105640000Y-137940000I0J-500000D01*
G01*
X105640000Y-138940000D01*
G75*
G02*
X105140000Y-139440000I-500000J0D01*
G01*
G37*
%TD.AperFunction*%
%TO.P,C1,1*%
%TO.N,3.3V*%
X104140000Y-142240000D03*
%TD*%
D16*
%TO.P,J7,2*%
%TO.N,Net-(J7-Pad2)*%
X115570000Y-82550000D03*
D17*
%TO.P,J7,1*%
%TO.N,Net-(F1-Pad2)*%
X110490000Y-82550000D03*
%TD*%
D18*
%TO.N,GND*%
X99180000Y-129730000D02*
X100520000Y-129730000D01*
X104140000Y-133350000D02*
X104140000Y-138440000D01*
X100520000Y-129730000D02*
X104140000Y-133350000D01*
X104140000Y-138440000D02*
X107960000Y-138440000D01*
X110490000Y-140970000D02*
X116920000Y-140970000D01*
X107960000Y-138440000D02*
X110490000Y-140970000D01*
X139620000Y-133350000D02*
X148590000Y-133350000D01*
X137000000Y-81050000D02*
X137000000Y-82550000D01*
X157360000Y-125850000D02*
X148590000Y-125850000D01*
X158669990Y-124540010D02*
X157360000Y-125850000D01*
X158669990Y-86440010D02*
X158669990Y-124540010D01*
X152400000Y-95250000D02*
X152400000Y-92710000D01*
X152400000Y-92710000D02*
X158669990Y-86440010D01*
X153670000Y-77470000D02*
X158669990Y-82469990D01*
X129500000Y-81280000D02*
X129500000Y-79780000D01*
X158669990Y-82469990D02*
X158669990Y-86440010D01*
X129500000Y-79780000D02*
X131810000Y-77470000D01*
X139310000Y-77470000D02*
X139700000Y-77470000D01*
X137000000Y-81280000D02*
X137000000Y-79780000D01*
X137000000Y-79780000D02*
X139310000Y-77470000D01*
X131810000Y-77470000D02*
X139700000Y-77470000D01*
X139700000Y-77470000D02*
X153670000Y-77470000D01*
%TO.N,3V3*%
X114300000Y-135890000D02*
X116920000Y-135890000D01*
X104140000Y-125730000D02*
X114300000Y-135890000D01*
X93980000Y-125730000D02*
X104140000Y-125730000D01*
X83780000Y-129730000D02*
X89980000Y-129730000D01*
X89980000Y-129730000D02*
X93980000Y-125730000D01*
X139620000Y-135890000D02*
X139700000Y-135890000D01*
X139620000Y-135890000D02*
X144780000Y-135890000D01*
%TO.N,17*%
X139700000Y-100250000D02*
X139620000Y-100330000D01*
X152400000Y-100250000D02*
X139700000Y-100250000D01*
%TO.N,Net-(J4-Pad2)*%
X148590000Y-139700000D02*
X149860000Y-139700000D01*
X149860000Y-139700000D02*
X152400000Y-137160000D01*
X152400000Y-137160000D02*
X152400000Y-132080000D01*
X151170000Y-130850000D02*
X148590000Y-130850000D01*
X152400000Y-132080000D02*
X151170000Y-130850000D01*
%TO.N,DIN*%
X148590000Y-147320000D02*
X92710000Y-147320000D01*
X92710000Y-147320000D02*
X78740000Y-133350000D01*
X78740000Y-133350000D02*
X78740000Y-125730000D01*
X78740000Y-125730000D02*
X82550000Y-121920000D01*
X82550000Y-121920000D02*
X105410000Y-121920000D01*
X105410000Y-121920000D02*
X110490000Y-116840000D01*
X110490000Y-116840000D02*
X110490000Y-102870000D01*
X113030000Y-100330000D02*
X116920000Y-100330000D01*
X110490000Y-102870000D02*
X113030000Y-100330000D01*
%TO.N,SDA*%
X134500000Y-82550000D02*
X134620000Y-82550000D01*
X129500000Y-92710000D02*
X129500000Y-91480000D01*
X134620000Y-82670000D02*
X134500000Y-82550000D01*
X129500000Y-91480000D02*
X134620000Y-86360000D01*
X134620000Y-81400000D02*
X134500000Y-81280000D01*
X134620000Y-86360000D02*
X134620000Y-81400000D01*
%TO.N,SCL*%
X132000000Y-85010000D02*
X132080000Y-85090000D01*
X132000000Y-81280000D02*
X132000000Y-85010000D01*
%TO.N,15*%
X143430000Y-107950000D02*
X139620000Y-107950000D01*
X147320000Y-111840000D02*
X143430000Y-107950000D01*
%TO.N,21*%
X127000000Y-92710000D02*
X127000000Y-96520000D01*
X125730000Y-97790000D02*
X116920000Y-97790000D01*
X127000000Y-96520000D02*
X125730000Y-97790000D01*
%TO.N,4*%
X132000000Y-92710000D02*
X132000000Y-98980000D01*
X135890000Y-102870000D02*
X139620000Y-102870000D01*
X132000000Y-98980000D02*
X135890000Y-102870000D01*
%TO.N,22*%
X147320000Y-116840000D02*
X146050000Y-116840000D01*
X142240000Y-120650000D02*
X139620000Y-120650000D01*
X146050000Y-116840000D02*
X142240000Y-120650000D01*
%TO.N,Net-(F1-Pad2)*%
X107690000Y-82550000D02*
X102610000Y-87630000D01*
X110490000Y-82550000D02*
X107690000Y-82550000D01*
%TO.N,Net-(F1-Pad1)*%
X78740000Y-87630000D02*
X77550010Y-88819990D01*
X80010000Y-87630000D02*
X78740000Y-87630000D01*
X77550010Y-88819990D02*
X77550010Y-92790010D01*
X77550010Y-92790010D02*
X80010000Y-95250000D01*
X80010000Y-95250000D02*
X87630000Y-95250000D01*
X88980000Y-96600000D02*
X88980000Y-100330000D01*
X87630000Y-95250000D02*
X88980000Y-96600000D01*
%TO.N,3.3V*%
X154940000Y-130810000D02*
X152480000Y-128350000D01*
X154940000Y-139700000D02*
X154940000Y-130810000D01*
X106680000Y-144780000D02*
X144780000Y-144780000D01*
X151130000Y-143510000D02*
X154940000Y-139700000D01*
X152480000Y-128350000D02*
X148590000Y-128350000D01*
X104140000Y-142240000D02*
X106680000Y-144780000D01*
X144780000Y-144780000D02*
X146050000Y-143510000D01*
X146050000Y-143510000D02*
X151130000Y-143510000D01*
%TO.N,Net-(J7-Pad2)*%
X115570000Y-82550000D02*
X115570000Y-83820000D01*
X115570000Y-83820000D02*
X104140000Y-95250000D01*
X104140000Y-95250000D02*
X95250000Y-95250000D01*
X93980000Y-96520000D02*
X93980000Y-100330000D01*
X95250000Y-95250000D02*
X93980000Y-96520000D01*
%TO.N,Net-(J1-Pad1)*%
X127000000Y-81280000D02*
X127000000Y-88900000D01*
%TO.N,Vcc*%
X154900000Y-97750000D02*
X156210000Y-99060000D01*
X152400000Y-97750000D02*
X154900000Y-97750000D01*
X156210000Y-99060000D02*
X156210000Y-120650000D01*
X156210000Y-120650000D02*
X154940000Y-121920000D01*
X154940000Y-121920000D02*
X146050000Y-121920000D01*
X146050000Y-121920000D02*
X144780000Y-123190000D01*
X144780000Y-123190000D02*
X144780000Y-128270000D01*
X142240000Y-88900000D02*
X142240000Y-91440000D01*
X148550000Y-97750000D02*
X152400000Y-97750000D01*
X142240000Y-91440000D02*
X148550000Y-97750000D01*
%TO.N,scl*%
X144780000Y-105410000D02*
X148590000Y-105410000D01*
X148590000Y-105410000D02*
X152400000Y-109220000D01*
X152400000Y-109220000D02*
X152400000Y-113030000D01*
X151090000Y-114340000D02*
X147320000Y-114340000D01*
X152400000Y-113030000D02*
X151090000Y-114340000D01*
%TO.N,Net-(R4-Pad1)*%
X139700000Y-85090000D02*
X139700000Y-92710000D01*
X142240000Y-95250000D02*
X144780000Y-97790000D01*
X139700000Y-92710000D02*
X142240000Y-95250000D01*
%TD*%
M02*
