M48
; DRILL file {KiCad (5.1.6)-1} date 03/04/21 10:09:21
; FORMAT={-:-/ absolute / inch / decimal}
; #@! TF.CreationDate,2021-03-04T10:09:21+01:00
; #@! TF.GenerationSoftware,Kicad,Pcbnew,(5.1.6)-1
; #@! TF.FileFunction,Plated,1,2,PTH
FMAT,2
INCH
T1C0.0315
T2C0.0374
T3C0.0394
T4C0.0598
%
G90
G05
T1
X5.85Y-5.5
X5.85Y-5.8
X5.85Y-4.9547
X5.85Y-5.0531
X5.85Y-5.1516
X5.85Y-5.25
X4.6031Y-3.85
X4.6031Y-3.95
X4.6031Y-4.05
X4.6031Y-4.15
X4.6031Y-4.25
X4.6031Y-4.35
X4.6031Y-4.45
X4.6031Y-4.55
X4.6031Y-4.65
X4.6031Y-4.75
X4.6031Y-4.85
X4.6031Y-4.95
X4.6031Y-5.05
X4.6031Y-5.15
X4.6031Y-5.25
X4.6031Y-5.35
X4.6031Y-5.45
X4.6031Y-5.55
X5.4969Y-3.85
X5.4969Y-3.95
X5.4969Y-4.05
X5.4969Y-4.15
X5.4969Y-4.25
X5.4969Y-4.35
X5.4969Y-4.45
X5.4969Y-4.55
X5.4969Y-4.65
X5.4969Y-4.75
X5.4969Y-4.85
X5.4969Y-4.95
X5.4969Y-5.05
X5.4969Y-5.15
X5.4969Y-5.25
X5.4969Y-5.35
X5.4969Y-5.45
X5.4969Y-5.55
X5.2Y-3.35
X5.5Y-3.35
X5.0Y-3.2
X5.0984Y-3.2
X5.1969Y-3.2
X5.2953Y-3.2
X5.3937Y-3.2
X5.4921Y-3.2
X5.5906Y-3.2
X5.689Y-3.2
X6.0Y-3.75
X6.0Y-3.8484
X6.0Y-3.9469
X4.1Y-5.6
X5.7Y-3.85
X5.7Y-4.15
X5.7Y-5.05
X5.7Y-5.35
X5.0Y-3.5
X5.6Y-3.5
T2
X5.0Y-3.65
X5.0984Y-3.65
X5.1969Y-3.65
X5.8Y-4.4031
X5.8Y-4.5016
X5.8Y-4.6
T3
X4.1Y-5.4504
X3.2984Y-5.1075
X3.5031Y-3.95
X3.7Y-3.95
X3.9047Y-5.1075
X3.15Y-3.45
X4.0398Y-3.45
T4
X4.35Y-3.25
X4.55Y-3.25
T0
M30
